<svg width="18" height="17" viewBox="0 0 18 17" fill="none" xmlns="http://www.w3.org/2000/svg">
<path d="M17.922 8.07175C17.6273 5.73644 16.4801 3.60427 14.7135 2.10862C12.9469 0.612975 10.6935 -0.133915 8.41128 0.0197638C6.12905 0.173442 3.98928 1.21616 2.42691 2.93597C0.864533 4.65578 -0.00320962 6.92363 5.55309e-05 9.27856C-0.00426702 10.539 0.243807 11.7869 0.728791 12.9443C1.21378 14.1016 1.92526 15.1436 2.81882 16.0052C3.50221 16.6566 4.40266 17.0127 5.33389 16.9997H12.6579C13.6417 17.002 14.5869 16.6057 15.2892 15.8963C16.29 14.8937 17.0493 13.664 17.5065 12.3054C17.9636 10.9468 18.1059 9.49703 17.922 8.07175ZM14.2409 14.7891C13.819 15.2171 13.2502 15.4565 12.6579 15.4554H5.33389C4.78594 15.467 4.25444 15.2623 3.84839 14.8833C3.10398 14.1653 2.51124 13.2971 2.10716 12.3328C1.70308 11.3685 1.49633 10.3288 1.4998 9.27856C1.50054 8.19161 1.72384 7.11704 2.15514 6.12496C2.58644 5.13287 3.21604 4.24557 4.00287 3.52094C5.36999 2.25151 7.1471 1.55157 8.98801 1.55746C9.28215 1.55759 9.57605 1.5746 9.86836 1.60842C11.2748 1.77661 12.6062 2.35162 13.7084 3.26685C14.8106 4.18208 15.6383 5.40008 16.0959 6.77977C16.5535 8.15946 16.6221 9.64439 16.2938 11.0626C15.9654 12.4808 15.2537 13.7742 14.2409 14.793V14.7891ZM5.8543 12.587C5.9965 12.7304 6.07757 12.926 6.07968 13.1309C6.08179 13.3358 6.00476 13.5332 5.86555 13.6796C5.72633 13.826 5.53633 13.9095 5.33734 13.9116C5.13835 13.9138 4.94668 13.8345 4.80448 13.6912C3.95335 12.8327 3.36975 11.7328 3.12807 10.5315C2.8864 9.33021 2.9976 8.08205 3.4475 6.94611C3.8974 5.81016 4.66562 4.83788 5.65423 4.1532C6.64284 3.46852 7.80707 3.10246 8.99851 3.10168C9.28529 3.10159 9.57171 3.12249 9.85561 3.16422C9.95311 3.17869 10.0469 3.21281 10.1316 3.26461C10.2163 3.31641 10.2902 3.38489 10.3492 3.46613C10.4082 3.54736 10.451 3.63977 10.4753 3.73807C10.4996 3.83637 10.5049 3.93864 10.4907 4.03902C10.4778 4.13996 10.4454 4.23722 10.3955 4.32508C10.3455 4.41294 10.279 4.48962 10.1999 4.55063C10.1207 4.61163 10.0305 4.65572 9.93455 4.68031C9.8386 4.70489 9.73884 4.70947 9.64115 4.69377C8.70267 4.55575 7.74584 4.72648 6.90719 5.18159C6.06854 5.63671 5.39093 6.35295 4.97107 7.22811C4.55121 8.10327 4.41054 9.09262 4.56915 10.055C4.72776 11.0173 5.17754 11.9035 5.8543 12.587ZM14.9367 8.39604C14.9773 8.68836 14.9976 8.98327 14.9975 9.27856C14.9999 10.1014 14.8413 10.9163 14.531 11.6745C14.2208 12.4328 13.7653 13.1189 13.1918 13.6919C13.0494 13.8353 12.8575 13.9145 12.6584 13.9122C12.4593 13.9099 12.2692 13.8262 12.13 13.6796C11.9908 13.533 11.9138 13.3354 11.9161 13.1304C11.9183 12.9253 11.9996 12.7296 12.142 12.5863C12.6486 12.0778 13.0312 11.4531 13.2585 10.7632C13.4858 10.0733 13.5513 9.33781 13.4497 8.61686C13.4213 8.41403 13.4723 8.20787 13.5915 8.04374C13.7106 7.87961 13.8883 7.77096 14.0853 7.74167C14.2822 7.71239 14.4825 7.76488 14.6419 7.8876C14.8013 8.01031 14.9068 8.19321 14.9352 8.39604H14.9367ZM10.4428 8.88324C10.533 9.21737 10.5132 9.57287 10.3865 9.89421C10.2598 10.2156 10.0334 10.4847 9.74247 10.6595C9.45156 10.8343 9.11263 10.905 8.77858 10.8605C8.44454 10.8161 8.1342 10.659 7.89603 10.4137C7.65786 10.1685 7.50527 9.84896 7.46209 9.505C7.41892 9.16105 7.48758 8.81206 7.65737 8.51254C7.82715 8.21301 8.0885 7.97981 8.40059 7.84936C8.71267 7.71891 9.05793 7.69856 9.38244 7.79147L12.2177 4.87213C12.2869 4.79838 12.3696 4.73956 12.4611 4.6991C12.5526 4.65863 12.651 4.63733 12.7506 4.63644C12.8501 4.63555 12.9489 4.65509 13.041 4.69391C13.1332 4.73273 13.2169 4.79006 13.2873 4.86256C13.3577 4.93505 13.4134 5.02126 13.4511 5.11615C13.4888 5.21104 13.5078 5.31271 13.5069 5.41523C13.5061 5.51775 13.4854 5.61907 13.4461 5.71327C13.4068 5.80747 13.3496 5.89267 13.278 5.96389L10.4428 8.88324Z" fill="white"/>
</svg>
