<svg width="18" height="19" viewBox="0 0 18 19" fill="none" xmlns="http://www.w3.org/2000/svg">
<path d="M6.75 8.70866C6.336 8.70866 6 8.3548 6 7.91702C6 6.88156 6.7785 6.42953 7.11075 6.23637C7.32825 6.1105 7.557 5.81284 7.48725 5.39248C7.4355 5.08216 7.18575 4.81854 6.8925 4.76471C6.663 4.72038 6.441 4.78212 6.2685 4.9357C6.0975 5.08611 6 5.30777 6 5.54289C6 5.98067 5.664 6.33453 5.25 6.33453C4.836 6.33453 4.5 5.98067 4.5 5.54289C4.5 4.83912 4.79325 4.17573 5.304 3.72291C5.81475 3.27009 6.48675 3.07851 7.15125 3.20597C8.058 3.373 8.80425 4.15989 8.964 5.11936C9.13125 6.12633 8.6775 7.13251 7.8345 7.62412C7.49925 7.81886 7.49925 7.87586 7.49925 7.91782C7.49925 8.35559 7.16325 8.70946 6.74925 8.70946L6.75 8.70866ZM6.75 9.50031C6.2325 9.50031 5.8125 9.94362 5.8125 10.4899C5.8125 11.0361 6.2325 11.4794 6.75 11.4794C7.2675 11.4794 7.6875 11.0361 7.6875 10.4899C7.6875 9.94362 7.2675 9.50031 6.75 9.50031ZM14.997 7.18871C14.9925 7.79749 14.9287 8.39042 14.811 8.96357C15.8392 9.83517 16.5 11.1699 16.5 12.6669V16.6251C16.5 17.0621 16.164 17.4167 15.75 17.4167H12C10.5817 17.4167 9.31725 16.7193 8.4915 15.6339C7.9485 15.7574 7.38675 15.8255 6.81 15.8303C7.84875 17.7215 9.78375 19 12 19H15.75C16.9928 19 18 17.9368 18 16.6251V12.6669C18 10.3276 16.7887 8.28514 14.997 7.18871ZM13.4827 7.64074C13.6215 5.57218 12.9068 3.54796 11.523 2.08659C10.1393 0.625217 8.223 -0.131592 6.26175 0.0188201C2.86725 0.272145 0 3.63345 0 7.35971V11.348C0 12.9479 1.2315 14.2502 2.74575 14.2502H6.1035C9.99375 14.2502 13.2352 11.3472 13.4827 7.64074ZM10.4625 3.20676C11.5395 4.34276 12.0945 5.91813 11.9872 7.52912C11.7975 10.3616 9.15825 12.6661 6.1035 12.6661H2.74575C2.05875 12.6661 1.5 12.0747 1.5 11.3472V7.35892C1.5 4.43301 3.729 1.79447 6.3675 1.59735C6.49275 1.58785 6.61725 1.5831 6.74175 1.5831C8.13525 1.5831 9.47475 2.16258 10.4625 3.20676Z" fill="white"/>
</svg>
