<svg width="18" height="19" viewBox="0 0 18 19" fill="none" xmlns="http://www.w3.org/2000/svg">
<path d="M16.65 1.00414C16.2284 0.59816 15.7343 0.304054 15.2029 0.142702C14.6714 -0.0186493 14.1156 -0.0432894 13.575 0.0705317L10.7085 0.669905C10.0467 0.809853 9.44497 1.20194 9 1.78315C8.55387 1.20093 7.95042 0.80876 7.287 0.669905L4.425 0.0705317C3.88437 -0.043389 3.3286 -0.0190718 2.79703 0.141762C2.26547 0.302596 1.7711 0.596014 1.34892 1.00125C0.92675 1.40648 0.58709 1.91362 0.353987 2.48677C0.120884 3.05992 3.66093e-05 3.68507 0 4.31796L0 13.6393C4.30919e-05 14.6505 0.308232 15.6296 0.87085 16.4059C1.43347 17.1823 2.21483 17.7066 3.07875 17.8876L7.79325 18.8748C8.59122 19.0417 9.40878 19.0417 10.2067 18.8748L14.925 17.8876C15.7882 17.7057 16.5687 17.181 17.1306 16.4047C17.6925 15.6285 18.0001 14.6499 18 13.6393V4.31796C18.0003 3.68529 17.8795 3.06031 17.6462 2.48754C17.4129 1.91476 17.0727 1.40827 16.65 1.00414ZM8.25 17.2105C8.187 17.2002 8.124 17.1881 8.061 17.1751L3.34725 16.1888C2.82882 16.0802 2.35995 15.7655 2.02237 15.2996C1.68479 14.8337 1.49992 14.2461 1.5 13.6393V4.31796C1.5 3.6308 1.73705 2.97178 2.15901 2.48588C2.58097 1.99999 3.15326 1.72701 3.75 1.72701C3.88582 1.72738 4.02134 1.74155 4.155 1.76933L7.02 2.37389C7.36471 2.44652 7.67645 2.65584 7.90113 2.96552C8.12581 3.2752 8.24924 3.6657 8.25 4.06923V17.2105ZM16.5 13.6393C16.5001 14.2461 16.3152 14.8337 15.9776 15.2996C15.6401 15.7655 15.1712 16.0802 14.6527 16.1888L9.939 17.1751C9.876 17.1881 9.813 17.2002 9.75 17.2105V4.06923C9.74995 3.66471 9.87319 3.27299 10.0982 2.96238C10.3233 2.65178 10.6359 2.44198 10.9815 2.36957L13.8472 1.76501C14.1718 1.69702 14.5053 1.71203 14.8243 1.80898C15.1432 1.90593 15.4398 2.08245 15.6929 2.32604C15.946 2.56963 16.1495 2.87433 16.289 3.21855C16.4284 3.56278 16.5005 3.93811 16.5 4.31796V13.6393Z" fill="white"/>
</svg>
