<svg width="18" height="19" viewBox="0 0 18 19" fill="none" xmlns="http://www.w3.org/2000/svg">
<path d="M17.3407 7.167L11.652 1.15781C10.9479 0.416361 9.99425 0 9 0C8.00575 0 7.05207 0.416361 6.348 1.15781L0.659258 7.167C0.449578 7.38704 0.283336 7.64886 0.170171 7.93726C0.0570054 8.22567 -0.000832799 8.53493 9.0596e-06 8.84713V16.6236C9.0596e-06 17.2538 0.237062 17.8583 0.659018 18.304C1.08097 18.7496 1.65327 19 2.25001 19H15.75C16.3467 19 16.919 18.7496 17.341 18.304C17.7629 17.8583 18 17.2538 18 16.6236V8.84713C18.0008 8.53493 17.943 8.22567 17.8298 7.93726C17.7167 7.64886 17.5504 7.38704 17.3407 7.167ZM11.25 17.4157H6.75V14.2994C6.75 13.6692 6.98705 13.0647 7.40901 12.619C7.83097 12.1734 8.40326 11.923 9 11.923C9.59674 11.923 10.169 12.1734 10.591 12.619C11.0129 13.0647 11.25 13.6692 11.25 14.2994V17.4157ZM16.5 16.6236C16.5 16.8337 16.421 17.0352 16.2803 17.1837C16.1397 17.3323 15.9489 17.4157 15.75 17.4157H12.75V14.2994C12.75 13.249 12.3549 12.2416 11.6516 11.4988C10.9484 10.756 9.99456 10.3387 9 10.3387C8.00544 10.3387 7.05161 10.756 6.34835 11.4988C5.64509 12.2416 5.25 13.249 5.25 14.2994V17.4157H2.25001C2.05109 17.4157 1.86033 17.3323 1.71968 17.1837C1.57903 17.0352 1.50001 16.8337 1.50001 16.6236V8.84713C1.5007 8.63719 1.57965 8.436 1.71976 8.28708L7.4085 2.28028C7.83128 1.83583 8.4035 1.58632 9 1.58632C9.5965 1.58632 10.1687 1.83583 10.5915 2.28028L16.2802 8.28946C16.4198 8.43779 16.4987 8.63802 16.5 8.84713V16.6236Z" fill="white"/>
</svg>
