<svg width="19" height="20" viewBox="0 0 19 20" fill="none" xmlns="http://www.w3.org/2000/svg">
<path d="M0.899951 4.22214H3.05228C3.22113 4.92408 3.58971 5.54373 4.10117 5.98551C4.61262 6.42729 5.23853 6.66664 5.88233 6.66664C6.52612 6.66664 7.15203 6.42729 7.66348 5.98551C8.17494 5.54373 8.54352 4.92408 8.71237 4.22214H18.2067C18.4153 4.22214 18.6154 4.1285 18.763 3.96181C18.9105 3.79513 18.9934 3.56905 18.9934 3.33332C18.9934 3.09759 18.9105 2.87151 18.763 2.70483C18.6154 2.53814 18.4153 2.4445 18.2067 2.4445H8.71237C8.54352 1.74256 8.17494 1.12291 7.66348 0.681131C7.15203 0.239352 6.52612 0 5.88233 0C5.23853 0 4.61262 0.239352 4.10117 0.681131C3.58971 1.12291 3.22113 1.74256 3.05228 2.4445H0.899951C0.691313 2.4445 0.491221 2.53814 0.343692 2.70483C0.196162 2.87151 0.113281 3.09759 0.113281 3.33332C0.113281 3.56905 0.196162 3.79513 0.343692 3.96181C0.491221 4.1285 0.691313 4.22214 0.899951 4.22214ZM5.88193 1.77788C6.15421 1.77788 6.42038 1.8691 6.64677 2.04002C6.87316 2.21093 7.04961 2.45386 7.15381 2.73808C7.25801 3.0223 7.28527 3.33505 7.23215 3.63677C7.17903 3.9385 7.04792 4.21565 6.85539 4.43318C6.66286 4.65072 6.41756 4.79886 6.15051 4.85887C5.88346 4.91889 5.60666 4.88809 5.3551 4.77036C5.10355 4.65263 4.88854 4.45327 4.73727 4.19748C4.586 3.94169 4.50526 3.64096 4.50526 3.33332C4.50568 2.92094 4.65085 2.52558 4.90894 2.23398C5.16702 1.94238 5.51694 1.77835 5.88193 1.77788Z" fill="white"/>
<path d="M18.2067 9.11074H16.0544C15.8858 8.40883 15.5174 7.78911 15.0059 7.34727C14.4945 6.90542 13.8686 6.66602 13.2247 6.66602C12.5808 6.66602 11.9549 6.90542 11.4435 7.34727C10.9321 7.78911 10.5636 8.40883 10.3951 9.11074H0.899951C0.691313 9.11074 0.491221 9.20436 0.343692 9.37101C0.196162 9.53765 0.113281 9.76367 0.113281 9.99934C0.113281 10.235 0.196162 10.461 0.343692 10.6277C0.491221 10.7943 0.691313 10.8879 0.899951 10.8879H10.3951C10.5636 11.5898 10.9321 12.2096 11.4435 12.6514C11.9549 13.0933 12.5808 13.3327 13.2247 13.3327C13.8686 13.3327 14.4945 13.0933 15.0059 12.6514C15.5174 12.2096 15.8858 11.5898 16.0544 10.8879H18.2067C18.4153 10.8879 18.6154 10.7943 18.763 10.6277C18.9105 10.461 18.9934 10.235 18.9934 9.99934C18.9934 9.76367 18.9105 9.53765 18.763 9.37101C18.6154 9.20436 18.4153 9.11074 18.2067 9.11074ZM13.2247 11.5544C12.9524 11.5544 12.6863 11.4632 12.4599 11.2923C12.2335 11.1214 12.057 10.8786 11.9528 10.5944C11.8486 10.3103 11.8214 9.99761 11.8745 9.69596C11.9276 9.39432 12.0587 9.11723 12.2513 8.89976C12.4438 8.68228 12.6891 8.53418 12.9561 8.47418C13.2232 8.41418 13.5 8.44497 13.7515 8.56267C14.0031 8.68037 14.2181 8.87968 14.3694 9.1354C14.5206 9.39113 14.6014 9.69178 14.6014 9.99934C14.601 10.4116 14.4558 10.8069 14.1977 11.0984C13.9396 11.3899 13.5897 11.5539 13.2247 11.5544Z" fill="white"/>
<path d="M18.2067 15.7785H8.71237C8.54352 15.0765 8.17494 14.4569 7.66348 14.0151C7.15203 13.5733 6.52612 13.334 5.88233 13.334C5.23853 13.334 4.61262 13.5733 4.10117 14.0151C3.58971 14.4569 3.22113 15.0765 3.05228 15.7785H0.899951C0.691313 15.7785 0.491221 15.8721 0.343692 16.0388C0.196162 16.2055 0.113281 16.4316 0.113281 16.6673C0.113281 16.903 0.196162 17.1291 0.343692 17.2958C0.491221 17.4625 0.691313 17.5561 0.899951 17.5561H3.05228C3.22113 18.2581 3.58971 18.8777 4.10117 19.3195C4.61262 19.7613 5.23853 20.0006 5.88233 20.0006C6.52612 20.0006 7.15203 19.7613 7.66348 19.3195C8.17494 18.8777 8.54352 18.2581 8.71237 17.5561H18.2067C18.4153 17.5561 18.6154 17.4625 18.763 17.2958C18.9105 17.1291 18.9934 16.903 18.9934 16.6673C18.9934 16.4316 18.9105 16.2055 18.763 16.0388C18.6154 15.8721 18.4153 15.7785 18.2067 15.7785ZM5.88193 18.2227C5.60965 18.2227 5.34349 18.1315 5.11709 17.9606C4.8907 17.7897 4.71425 17.5468 4.61005 17.2625C4.50586 16.9783 4.47859 16.6656 4.53171 16.3639C4.58483 16.0621 4.71595 15.785 4.90848 15.5674C5.10101 15.3499 5.34631 15.2018 5.61336 15.1418C5.88041 15.0817 6.15721 15.1125 6.40876 15.2303C6.66032 15.348 6.87532 15.5474 7.02659 15.8031C7.17786 16.0589 7.25861 16.3597 7.25861 16.6673C7.25798 17.0796 7.11274 17.4748 6.8547 17.7664C6.59666 18.0579 6.24686 18.222 5.88193 18.2227Z" fill="white"/>
</svg>
