<svg width="55" height="55" viewBox="0 0 55 55" fill="none" xmlns="http://www.w3.org/2000/svg">
    <path d="M27.5 0C20.2065 0 13.2118 2.89731 8.05456 8.05456C2.89731 13.2118 0 20.2065 0 27.5C0 34.7935 2.89731 41.7882 8.05456 46.9454C13.2118 52.1027 20.2065 55 27.5 55C34.7935 55 41.7882 52.1027 46.9454 46.9454C52.1027 41.7882 55 34.7935 55 27.5C55 20.2065 52.1027 13.2118 46.9454 8.05456C41.7882 2.89731 34.7935 0 27.5 0V0ZM35.3375 12.2329C35.9654 12.2329 36.6002 12.4735 37.0998 12.9548L43.6585 19.5135C48.3656 24.1863 48.4344 31.774 43.8992 36.5842C43.8733 36.6358 43.8384 36.6824 43.796 36.7217L43.7273 36.7904L43.6585 36.8592C43.6242 36.8935 43.5554 36.9279 43.521 36.9623C38.7131 41.4952 31.1231 41.4265 26.4183 36.7217L19.8573 30.1606C19.629 29.9366 19.4476 29.6693 19.3238 29.3744C19.2 29.0795 19.1362 28.7629 19.1362 28.443C19.1362 28.1232 19.2 27.8065 19.3238 27.5116C19.4476 27.2167 19.629 26.9494 19.8573 26.7254C20.0813 26.4968 20.3488 26.3151 20.6439 26.1911C20.939 26.0671 21.2559 26.0032 21.576 26.0032C21.8962 26.0032 22.2131 26.0671 22.5082 26.1911C22.8033 26.3151 23.0708 26.4968 23.2948 26.7254L29.8513 33.2865C31.2279 34.6657 33.0928 35.4465 35.0415 35.4594C36.9902 35.4723 38.8653 34.7162 40.26 33.3552C41.6126 31.9566 42.363 30.0835 42.3501 28.1379C42.3373 26.1924 41.5622 24.3293 40.1912 22.9488L33.6302 16.39C33.4016 16.166 33.2199 15.8985 33.0959 15.6034C32.9719 15.3083 32.908 14.9914 32.908 14.6713C32.908 14.3511 32.9719 14.0342 33.0959 13.7391C33.2199 13.444 33.4016 13.1765 33.6302 12.9525C34.0954 12.4735 34.7119 12.2329 35.3398 12.2329H35.3375ZM20.0704 14.6598C23.268 14.694 26.3247 15.9809 28.584 18.244L35.145 24.8027C36.1075 25.7652 36.1075 27.2777 35.145 28.2402C34.1825 29.2004 32.67 29.2004 31.7075 28.2402L25.151 21.6792C23.7628 20.3039 21.8895 19.5294 19.9354 19.523C17.9812 19.5166 16.1029 20.2786 14.7056 21.6448C13.3532 23.043 12.6029 24.9157 12.6157 26.8609C12.6286 28.8061 13.4036 30.6688 14.7744 32.049L21.3354 38.61C22.2979 39.5725 22.2979 41.085 21.3354 42.0452C21.1114 42.2735 20.8441 42.4549 20.5492 42.5787C20.2543 42.7025 19.9377 42.7663 19.6178 42.7663C19.298 42.7663 18.9813 42.7025 18.6864 42.5787C18.3915 42.4549 18.1242 42.2735 17.9002 42.0452L11.3438 35.4842C6.63667 30.7794 6.56792 23.1894 11.1031 18.3815C11.1375 18.3127 11.1719 18.2783 11.2063 18.244L11.275 18.1752L11.3438 18.1065C11.3781 18.0721 11.4469 18.0377 11.4813 18.0033C13.8008 15.8143 16.8814 14.6143 20.0704 14.6575V14.6598Z" fill="white" />
</svg>
