<svg width="1985" height="650" viewBox="0 0 1985 650" fill="none" xmlns="http://www.w3.org/2000/svg">
    <path fill-rule="evenodd" clip-rule="evenodd"
        d="M852.528 527C450.755 527 116.771 609 1.07664e-05 650C7.17757e-06 650 3.58878e-06 650 0 650M1.07664e-05 650L1.0753e-05 0.00012207H1983.86V572.799C1973.04 593.286 1916.72 616.037 1746.39 595.223C1695.24 588.972 1648.74 582.456 1602.95 576.037C1422.56 550.756 1253.06 527 852.528 527"
        fill="#381A46" />
    <mask id="mask0_1354_1225" style="mask-type:alpha" maskUnits="userSpaceOnUse" x="0" y="0"
        width="1984" height="651">
        <path fill-rule="evenodd" clip-rule="evenodd"
            d="M852.528 527C450.755 527 116.771 609 1.07664e-05 650C7.17757e-06 650 3.58878e-06 650 0 650M1.07664e-05 650L1.0753e-05 0.00012207H1983.86V572.799C1973.04 593.286 1916.72 616.037 1746.39 595.223C1695.24 588.972 1648.74 582.456 1602.95 576.037C1422.56 550.756 1253.06 527 852.528 527"
            fill="#381A46" />
    </mask>
    <g mask="url(#mask0_1354_1225)">
        <path
            d="M-103.804 401.228L-109.926 1014.76C-109.945 1016.72 -109.204 1018.62 -107.857 1020.06C-105.472 1022.62 -101.668 1023.26 -98.6103 1021.62L838.221 518.574C1039.41 410.54 1047.72 125.539 853.259 2.27013L455.588 -249.82C378.329 -298.796 283.278 -310.372 197.193 -281.289L97.7796 -247.703C-22.9284 -206.923 -103.804 -94.2291 -103.804 33.1881L-103.804 401.228Z"
            fill="#482857" />
        <path
            d="M246.015 290.689C239.684 290.505 234.705 285.385 234.895 279.253C235.085 273.121 240.372 268.299 246.703 268.483C253.035 268.667 258.014 273.787 257.824 279.919C257.634 286.052 252.347 290.873 246.015 290.689Z"
            fill="#685172" />
        <path
            d="M159.434 285.467C146.137 285.081 135.681 274.328 136.08 261.45C136.48 248.572 147.582 238.446 160.879 238.833C174.176 239.219 184.632 249.972 184.232 262.85C183.833 275.727 172.731 285.853 159.434 285.467Z"
            fill="#685172" />
        <path
            d="M311.013 656.366C247.1 656.366 195.287 606.194 195.287 544.303C195.287 482.413 247.1 432.241 311.013 432.241C374.926 432.241 426.738 482.413 426.738 544.303C426.738 606.194 374.926 656.366 311.013 656.366Z"
            fill="#685172" />
        <path
            d="M158.677 337.771C152.068 337.035 147.327 331.25 148.087 324.85C148.848 318.451 154.822 313.86 161.43 314.596C168.039 315.332 172.78 321.117 172.02 327.517C171.259 333.916 165.286 338.507 158.677 337.771Z"
            fill="#685172" />
    </g>
    <path
        d="M1965.49 268.826C1964.73 268.653 1964.12 269.404 1964.44 270.085L1966.43 274.219C1966.67 274.722 1966.66 275.321 1966.35 275.797L1964.01 279.732C1963.61 280.395 1964.17 281.184 1964.92 281.092L1969.56 280.52C1970.11 280.446 1970.68 280.667 1971.06 281.068L1974.18 284.455C1974.71 285.018 1975.66 284.778 1975.79 284.015L1976.67 279.556C1976.75 279.003 1977.14 278.542 1977.66 278.343L1981.93 276.539C1982.63 276.23 1982.68 275.289 1982 274.898L1977.91 272.685C1977.39 272.417 1977.06 271.937 1977.01 271.386L1976.54 266.867C1976.48 266.122 1975.53 265.764 1974.97 266.304L1971.56 269.416C1971.15 269.784 1970.55 269.968 1970.01 269.84L1965.49 268.826Z"
        fill="#FDCC00" />
    <path
        d="M1817.19 221.996L1820.09 224.148C1820.57 224.518 1821.23 224.154 1821.2 223.572L1821.06 219.973C1821.03 219.521 1821.24 219.109 1821.59 218.858L1824.39 216.775C1824.87 216.426 1824.73 215.675 1824.14 215.495L1820.74 214.42C1820.33 214.296 1819.98 213.957 1819.86 213.527L1818.72 210.084C1818.53 209.508 1817.8 209.397 1817.45 209.878L1815.52 212.822C1815.26 213.181 1814.88 213.408 1814.46 213.383L1810.92 213.325C1810.35 213.307 1810.03 214.01 1810.38 214.479L1812.58 217.362C1812.84 217.723 1812.93 218.19 1812.81 218.58L1811.79 221.982C1811.63 222.547 1812.16 223.101 1812.71 222.898L1816.01 221.737C1816.41 221.67 1816.84 221.756 1817.19 221.996Z"
        fill="white" />
    <path
        d="M1841.01 284.11C1840.47 283.84 1839.86 284.277 1839.95 284.849L1840.53 288.267C1840.61 288.685 1840.46 289.099 1840.14 289.399L1837.49 291.819C1837.06 292.208 1837.28 292.904 1837.87 293.004L1841.51 293.495C1841.95 293.539 1842.33 293.82 1842.53 294.206L1844.13 297.305C1844.41 297.83 1845.17 297.825 1845.46 297.283L1847.13 294.174C1847.32 293.781 1847.72 293.524 1848.17 293.472L1851.8 292.963C1852.41 292.872 1852.66 292.184 1852.22 291.794L1849.61 289.388C1849.29 289.092 1849.14 288.66 1849.24 288.262L1849.89 284.845C1850 284.284 1849.38 283.846 1848.82 284.113L1845.55 285.719C1845.14 285.917 1844.67 285.91 1844.28 285.726L1841.01 284.11Z"
        fill="white" />
    <path
        d="M1743.81 252.837C1743.26 252.549 1742.65 252.998 1742.74 253.594L1743.37 257.157C1743.45 257.593 1743.3 258.023 1742.98 258.331L1740.35 260.823C1739.93 261.224 1740.15 261.949 1740.75 262.06L1744.4 262.608C1744.85 262.659 1745.23 262.955 1745.44 263.359L1747.08 266.601C1747.36 267.15 1748.13 267.152 1748.41 266.591L1750.04 263.372C1750.24 262.965 1750.63 262.702 1751.09 262.653L1754.72 262.16C1755.33 262.072 1755.57 261.358 1755.13 260.948L1752.48 258.417C1752.16 258.106 1752.01 257.655 1752.1 257.241L1752.71 253.692C1752.82 253.11 1752.19 252.647 1751.63 252.919L1748.37 254.557C1747.96 254.759 1747.49 254.747 1747.1 254.551L1743.81 252.837Z"
        fill="#4F53AA" />
    <path
        d="M1964 192.685L1966.99 194.808C1967.48 195.173 1968.18 194.801 1968.15 194.189L1968.01 190.595C1967.99 190.143 1968.21 189.728 1968.57 189.474L1971.5 187.328C1972.01 186.973 1971.84 186.23 1971.26 186.05L1967.74 185.041C1967.31 184.921 1966.95 184.586 1966.81 184.165L1965.62 180.738C1965.43 180.165 1964.64 180.069 1964.31 180.546L1962.26 183.515C1962.02 183.868 1961.59 184.108 1961.15 184.087L1957.48 184.099C1956.88 184.087 1956.54 184.794 1956.92 185.252L1959.19 188.113C1959.48 188.464 1959.54 188.939 1959.41 189.33L1958.32 192.777C1958.14 193.345 1958.72 193.886 1959.26 193.684L1962.71 192.455C1963.18 192.368 1963.63 192.419 1964 192.685Z"
        fill="#381A46" />
    <path
        d="M1944.8 352.082L1951.45 356.797C1952.55 357.609 1954.1 356.784 1954.03 355.422L1953.72 347.438C1953.67 346.433 1954.16 345.511 1954.96 344.945L1961.49 340.177C1962.6 339.388 1962.23 337.738 1960.94 337.336L1953.12 335.096C1952.17 334.828 1951.38 334.083 1951.05 333.148L1948.41 325.534C1947.99 324.259 1946.24 324.047 1945.5 325.107L1940.94 331.703C1940.41 332.489 1939.45 333.022 1938.48 332.976L1930.31 333.002C1928.98 332.975 1928.22 334.546 1929.09 335.563L1934.11 341.922C1934.77 342.701 1934.9 343.756 1934.62 344.626L1932.19 352.284C1931.79 353.547 1933.07 354.749 1934.28 354.3L1941.94 351.569C1942.99 351.376 1943.98 351.49 1944.8 352.082Z"
        fill="#FDD244" stroke="#381A46" stroke-width="5" />
    <path
        d="M1874.81 429.716L1877.95 431.945C1878.48 432.328 1879.21 431.938 1879.17 431.295L1879.03 427.521C1879 427.047 1879.23 426.611 1879.61 426.343L1882.7 424.09C1883.22 423.717 1883.05 422.937 1882.44 422.747L1878.74 421.689C1878.29 421.562 1877.92 421.21 1877.77 420.768L1876.52 417.17C1876.32 416.567 1875.49 416.467 1875.14 416.968L1872.99 420.085C1872.74 420.457 1872.28 420.709 1871.83 420.687L1867.97 420.699C1867.34 420.686 1866.98 421.429 1867.39 421.909L1869.76 424.914C1870.07 425.283 1870.13 425.782 1870 426.193L1868.85 429.812C1868.66 430.408 1869.27 430.976 1869.84 430.764L1873.46 429.474C1873.96 429.383 1874.42 429.436 1874.81 429.716Z"
        fill="#FDD244" stroke="#381A46" stroke-width="3" />
    <path opacity="0.6"
        d="M1753.01 330.966C1753.73 331.191 1754.41 330.55 1754.17 329.892L1752.77 325.804C1752.61 325.314 1752.69 324.762 1753.04 324.331L1755.79 320.884C1756.23 320.304 1755.82 319.502 1755.06 319.505L1750.53 319.552C1749.98 319.567 1749.47 319.287 1749.16 318.866L1746.6 315.352C1746.18 314.769 1745.24 314.915 1744.99 315.601L1743.6 319.706C1743.44 320.215 1743.02 320.603 1742.47 320.772L1738.14 322.051C1737.44 322.259 1737.25 323.15 1737.86 323.561L1741.52 326.046C1741.96 326.341 1742.23 326.837 1742.21 327.374L1742.08 331.689C1742.08 332.409 1742.92 332.823 1743.52 332.389L1747.18 329.841C1747.63 329.541 1748.2 329.459 1748.73 329.606L1753.01 330.966Z"
        fill="white" />
    <path
        d="M1888.92 214.556C1887.99 213.983 1886.76 214.68 1886.85 215.756L1887.34 222.218C1887.39 223.014 1887.05 223.776 1886.42 224.292L1881.15 228.365C1880.28 229.035 1880.58 230.382 1881.65 230.627L1888.22 232.134C1889.02 232.322 1889.67 232.867 1889.97 233.599L1892.37 239.645C1892.77 240.641 1894.19 240.768 1894.78 239.844L1898.34 234.297C1898.76 233.609 1899.53 233.191 1900.36 233.143L1907.11 232.798C1908.24 232.739 1908.8 231.466 1908.08 230.648L1903.71 225.71C1903.18 225.102 1902.99 224.278 1903.19 223.517L1904.98 217.255C1905.27 216.213 1904.19 215.324 1903.15 215.715L1896.87 218.201C1896.11 218.49 1895.25 218.417 1894.57 218.008L1888.92 214.556Z"
        fill="#FDCC00" />
</svg>