<svg width="24" height="24" viewBox="0 0 24 24" fill="none" xmlns="http://www.w3.org/2000/svg">
<path d="M22.9576 11.2649H20.876V9.30576C20.876 9.04596 20.7663 8.7968 20.5711 8.61309C20.3759 8.42938 20.1112 8.32617 19.8351 8.32617C19.5591 8.32617 19.2944 8.42938 19.0992 8.61309C18.904 8.7968 18.7943 9.04596 18.7943 9.30576V11.2649H16.7127C16.4366 11.2649 16.1719 11.3682 15.9767 11.5519C15.7815 11.7356 15.6719 11.9847 15.6719 12.2445C15.6719 12.5043 15.7815 12.7535 15.9767 12.9372C16.1719 13.1209 16.4366 13.2241 16.7127 13.2241H18.7943V15.1833C18.7943 15.4431 18.904 15.6923 19.0992 15.876C19.2944 16.0597 19.5591 16.1629 19.8351 16.1629C20.1112 16.1629 20.3759 16.0597 20.5711 15.876C20.7663 15.6923 20.876 15.4431 20.876 15.1833V13.2241H22.9576C23.2336 13.2241 23.4984 13.1209 23.6936 12.9372C23.8887 12.7535 23.9984 12.5043 23.9984 12.2445C23.9984 11.9847 23.8887 11.7356 23.6936 11.5519C23.4984 11.3682 23.2336 11.2649 22.9576 11.2649Z" fill="#FFAE00"/>
<path d="M8.81505 12.2449C9.97752 12.2449 11.1139 11.8858 12.0804 11.2131C13.047 10.5403 13.8003 9.58414 14.2452 8.46541C14.6901 7.34668 14.8065 6.11566 14.5797 4.92802C14.3529 3.74038 13.7931 2.64947 12.9711 1.79323C12.1491 0.936986 11.1018 0.35388 9.9617 0.117644C8.82157 -0.118592 7.63979 0.00265277 6.56581 0.466046C5.49183 0.92944 4.57388 1.71417 3.92805 2.721C3.28221 3.72783 2.9375 4.91154 2.9375 6.12245C2.93906 7.74573 3.5588 9.30205 4.66071 10.4499C5.76263 11.5977 7.2567 12.2433 8.81505 12.2449ZM8.81505 2.04082C9.59003 2.04082 10.3476 2.2802 10.992 2.7287C11.6363 3.17719 12.1386 3.81466 12.4351 4.56048C12.7317 5.3063 12.8093 6.12698 12.6581 6.91874C12.5069 7.7105 12.1337 8.43777 11.5858 9.0086C11.0378 9.57943 10.3396 9.96816 9.57949 10.1257C8.8194 10.2831 8.03154 10.2023 7.31556 9.89339C6.59957 9.58446 5.9876 9.0613 5.55705 8.39008C5.12649 7.71886 4.89668 6.92972 4.89668 6.12245C4.89668 5.03993 5.30951 4.00176 6.04435 3.2363C6.77918 2.47085 7.77583 2.04082 8.81505 2.04082V2.04082Z" fill="#FFAE00"/>
<path d="M9.06123 14.2041C6.65886 14.2067 4.35565 15.1364 2.65691 16.7892C0.958183 18.442 0.00266486 20.683 0 23.0204C0 23.2802 0.106074 23.5294 0.294886 23.7131C0.483698 23.8968 0.739782 24 1.0068 24C1.27382 24 1.52991 23.8968 1.71872 23.7131C1.90753 23.5294 2.01361 23.2802 2.01361 23.0204C2.01361 21.2018 2.75612 19.4577 4.07781 18.1717C5.39949 16.8857 7.19208 16.1633 9.06123 16.1633C10.9304 16.1633 12.723 16.8857 14.0446 18.1717C15.3663 19.4577 16.1088 21.2018 16.1088 23.0204C16.1088 23.2802 16.2149 23.5294 16.4037 23.7131C16.5925 23.8968 16.8486 24 17.1156 24C17.3827 24 17.6388 23.8968 17.8276 23.7131C18.0164 23.5294 18.1225 23.2802 18.1225 23.0204C18.1198 20.683 17.1643 18.442 15.4655 16.7892C13.7668 15.1364 11.4636 14.2067 9.06123 14.2041V14.2041Z" fill="#FFAE00"/>
</svg>
