<svg width="24" height="24" viewBox="0 0 24 24" fill="none" xmlns="http://www.w3.org/2000/svg">
    <path d="M12 1.99219C6.486 1.99319 2 6.47919 2 11.9932C2 17.5062 6.486 21.9922 12 21.9932C17.514 21.9932 22 17.5072 22 11.9932C22 6.47919 17.515 1.99319 12 1.99219ZM12 19.9932C7.589 19.9922 4 16.4032 4 11.9932C4 7.58219 7.589 3.99319 12 3.99219C16.411 3.99319 20 7.58219 20 11.9932C20 16.4042 16.411 19.9932 12 19.9932Z" fill="white" />
    <path d="M13.0012 8H11.0012V12H7.99219L11.9972 16.005L16.0012 12H13.0012V8Z" fill="white" />
</svg>