<svg width="43" height="47" viewBox="0 0 43 47" fill="none" xmlns="http://www.w3.org/2000/svg">
    <path d="M5.45833 46.4168H37.5417C40.0694 46.4168 42.125 44.3612 42.125 41.8335V9.75016C42.125 7.22245 40.0694 5.16683 37.5417 5.16683H32.9583V0.583496H28.375V5.16683H14.625V0.583496H10.0417V5.16683H5.45833C2.93062 5.16683 0.875 7.22245 0.875 9.75016V41.8335C0.875 44.3612 2.93062 46.4168 5.45833 46.4168ZM19.2083 38.1989L10.7131 29.7037L13.9535 26.4633L19.2083 31.7181L29.0465 21.88L32.2869 25.1204L19.2083 38.1989ZM5.45833 12.0418H37.5417V16.6252H5.45833V12.0418Z" fill="white" />
</svg>
