<svg width="1920" height="650" viewBox="0 0 1920 650" fill="none" xmlns="http://www.w3.org/2000/svg">
    <path fill-rule="evenodd" clip-rule="evenodd"
        d="M825.084 527C436.244 527 113.012 609 1.07355e-05 650C7.15701e-06 650 3.57851e-06 650 0 650M1.07355e-05 650L1.0753e-05 0.00012207H1920V572.798C1909.52 593.285 1855.02 616.037 1690.17 595.223C1640.66 588.972 1595.67 582.456 1551.35 576.038C1376.77 550.756 1212.73 527 825.084 527"
        fill="#381A46" />
    <mask id="mask0_1354_951" style="mask-type:alpha" maskUnits="userSpaceOnUse" x="0" y="0"
        width="1920" height="651">
        <path fill-rule="evenodd" clip-rule="evenodd"
            d="M825.084 527C436.244 527 113.012 609 1.07355e-05 650C7.15701e-06 650 3.57851e-06 650 0 650M1.07355e-05 650L1.0753e-05 0.00012207H1920V572.798C1909.52 593.285 1855.02 616.037 1690.17 595.223C1640.66 588.972 1595.67 582.456 1551.35 576.038C1376.77 550.756 1212.73 527 825.084 527"
            fill="#381A46" />
    </mask>
    <g mask="url(#mask0_1354_951)">
        <path
            d="M-100.463 401.228L-106.388 1014.89C-106.406 1016.77 -105.717 1018.59 -104.456 1019.99C-102.118 1022.58 -98.3027 1023.21 -95.2514 1021.52L811.362 518.504C1008.77 408.976 1019.08 128.876 830.255 5.19384L446.288 -246.305C368.331 -297.367 271.064 -309.292 183.069 -278.575L100.706 -249.824C-19.7606 -207.771 -100.463 -94.1226 -100.463 33.473L-100.463 401.228Z"
            fill="#482857" />
        <path
            d="M238.096 290.689C231.968 290.505 227.15 285.385 227.333 279.253C227.517 273.121 232.634 268.299 238.762 268.483C244.89 268.667 249.708 273.787 249.524 279.919C249.34 286.052 244.224 290.873 238.096 290.689Z"
            fill="#685172" />
        <path
            d="M154.301 285.467C141.432 285.081 131.313 274.328 131.699 261.45C132.085 248.572 142.831 238.446 155.7 238.833C168.568 239.219 178.687 249.972 178.301 262.849C177.915 275.727 167.17 285.853 154.301 285.467Z"
            fill="#685172" />
        <path
            d="M301.001 656.366C239.145 656.366 189 606.194 189 544.303C189 482.413 239.145 432.241 301.001 432.241C362.857 432.241 413 482.413 413 544.303C413.001 606.194 362.857 656.366 301.001 656.366Z"
            fill="#685172" />
        <path
            d="M153.569 337.771C147.173 337.035 142.584 331.25 143.32 324.851C144.056 318.451 149.838 313.86 156.234 314.596C162.63 315.333 167.218 321.117 166.482 327.517C165.746 333.916 159.965 338.507 153.569 337.771Z"
            fill="#685172" />
    </g>
    <path
        d="M1812.58 219.996L1815.38 222.148C1815.85 222.518 1816.49 222.154 1816.46 221.572L1816.32 217.973C1816.3 217.521 1816.5 217.109 1816.83 216.858L1819.54 214.776C1820.01 214.426 1819.87 213.675 1819.3 213.496L1816.01 212.42C1815.61 212.296 1815.28 211.957 1815.17 211.528L1814.05 208.084C1813.87 207.509 1813.17 207.397 1812.83 207.878L1810.96 210.822C1810.71 211.181 1810.34 211.409 1809.94 211.383L1806.51 211.326C1805.95 211.307 1805.65 212.01 1805.98 212.479L1808.12 215.362C1808.36 215.723 1808.46 216.19 1808.34 216.58L1807.35 219.982C1807.19 220.547 1807.71 221.101 1808.24 220.898L1811.44 219.737C1811.82 219.67 1812.24 219.757 1812.58 219.996Z"
        fill="white" />
    <path
        d="M1835.63 282.111C1835.11 281.84 1834.51 282.277 1834.6 282.849L1835.17 286.267C1835.24 286.685 1835.09 287.099 1834.78 287.399L1832.22 289.819C1831.8 290.209 1832.02 290.904 1832.59 291.004L1836.11 291.495C1836.54 291.539 1836.9 291.82 1837.1 292.206L1838.65 295.306C1838.92 295.831 1839.66 295.825 1839.94 295.283L1841.55 292.174C1841.74 291.781 1842.12 291.524 1842.56 291.472L1846.08 290.963C1846.67 290.872 1846.91 290.184 1846.48 289.794L1843.95 287.388C1843.65 287.092 1843.5 286.66 1843.59 286.262L1844.22 282.845C1844.33 282.284 1843.73 281.846 1843.19 282.113L1840.02 283.719C1839.62 283.917 1839.17 283.911 1838.8 283.726L1835.63 282.111Z"
        fill="white" />
    <path
        d="M1741.56 250.837C1741.03 250.55 1740.44 250.998 1740.53 251.594L1741.13 255.157C1741.21 255.593 1741.07 256.023 1740.76 256.331L1738.21 258.823C1737.8 259.224 1738.02 259.949 1738.6 260.06L1742.13 260.608C1742.56 260.659 1742.93 260.955 1743.13 261.359L1744.72 264.601C1744.99 265.15 1745.74 265.152 1746.01 264.592L1747.59 261.372C1747.78 260.965 1748.16 260.702 1748.6 260.653L1752.12 260.16C1752.71 260.072 1752.94 259.358 1752.51 258.948L1749.95 256.417C1749.64 256.106 1749.49 255.655 1749.58 255.241L1750.17 251.692C1750.28 251.11 1749.67 250.647 1749.13 250.919L1745.97 252.558C1745.58 252.759 1745.12 252.747 1744.75 252.551L1741.56 250.837Z"
        fill="#4F53AA" />
    <path
        d="M1936.08 350.082L1942.51 354.798C1943.58 355.609 1945.08 354.784 1945.01 353.422L1944.71 345.438C1944.66 344.433 1945.13 343.511 1945.91 342.945L1952.23 338.177C1953.3 337.388 1952.95 335.738 1951.7 335.336L1944.13 333.096C1943.21 332.828 1942.44 332.083 1942.13 331.149L1939.57 323.534C1939.17 322.259 1937.48 322.047 1936.75 323.107L1932.34 329.703C1931.83 330.489 1930.9 331.022 1929.96 330.976L1922.06 331.002C1920.77 330.975 1920.04 332.546 1920.87 333.563L1925.74 339.922C1926.37 340.702 1926.5 341.757 1926.23 342.626L1923.87 350.285C1923.49 351.547 1924.73 352.749 1925.9 352.3L1933.31 349.569C1934.33 349.376 1935.29 349.49 1936.08 350.082Z"
        fill="#FDD244" stroke="#381A46" stroke-width="5" />
    <path
        d="M1868.35 427.716L1871.39 429.945C1871.89 430.328 1872.6 429.938 1872.56 429.295L1872.42 425.521C1872.4 425.047 1872.62 424.611 1872.99 424.343L1875.98 422.09C1876.48 421.717 1876.32 420.937 1875.73 420.748L1872.15 419.689C1871.71 419.562 1871.35 419.21 1871.2 418.768L1870 415.17C1869.8 414.567 1869 414.467 1868.66 414.968L1866.58 418.085C1866.34 418.457 1865.9 418.709 1865.45 418.687L1861.72 418.699C1861.11 418.687 1860.76 419.429 1861.16 419.909L1863.46 422.915C1863.75 423.283 1863.82 423.782 1863.69 424.193L1862.58 427.812C1862.39 428.408 1862.98 428.977 1863.53 428.764L1867.04 427.474C1867.52 427.383 1867.97 427.437 1868.35 427.716Z"
        fill="#FDD244" stroke="#381A46" stroke-width="3" />
    <path opacity="0.6"
        d="M1750.46 328.966C1751.16 329.191 1751.82 328.55 1751.59 327.892L1750.23 323.804C1750.07 323.314 1750.15 322.762 1750.49 322.331L1753.16 318.884C1753.58 318.305 1753.18 317.502 1752.45 317.505L1748.06 317.552C1747.53 317.567 1747.04 317.288 1746.74 316.866L1744.26 313.352C1743.86 312.77 1742.94 312.915 1742.7 313.601L1741.35 317.706C1741.2 318.215 1740.79 318.603 1740.26 318.772L1736.07 320.051C1735.39 320.259 1735.21 321.151 1735.8 321.561L1739.34 324.046C1739.77 324.341 1740.03 324.837 1740.01 325.374L1739.89 329.689C1739.88 330.409 1740.69 330.824 1741.28 330.389L1744.82 327.841C1745.25 327.541 1745.8 327.46 1746.32 327.607L1750.46 328.966Z"
        fill="white" />
    <path
        d="M1882 212.556C1881.1 211.984 1879.91 212.681 1879.99 213.756L1880.47 220.219C1880.51 221.014 1880.19 221.776 1879.58 222.292L1874.47 226.366C1873.64 227.036 1873.92 228.382 1874.96 228.627L1881.32 230.134C1882.09 230.322 1882.72 230.868 1883.01 231.6L1885.34 237.645C1885.73 238.641 1887.1 238.768 1887.67 237.844L1891.12 232.297C1891.53 231.609 1892.26 231.191 1893.07 231.143L1899.6 230.798C1900.69 230.739 1901.24 229.466 1900.54 228.648L1896.32 223.71C1895.8 223.102 1895.62 222.278 1895.81 221.517L1897.54 215.256C1897.82 214.213 1896.77 213.324 1895.77 213.715L1889.7 216.201C1888.96 216.49 1888.12 216.417 1887.46 216.008L1882 212.556Z"
        fill="#FDCC00" />
</svg>