<svg width="22" height="24" viewBox="0 0 22 24" fill="none" xmlns="http://www.w3.org/2000/svg">
<path d="M21.6654 18.6667V5.33333C21.6654 2.44267 16.7814 0 10.9987 0C5.21603 0 0.332031 2.44267 0.332031 5.33333V18.6667C0.332031 21.5573 5.21603 24 10.9987 24C16.7814 24 21.6654 21.5573 21.6654 18.6667ZM10.9987 2.66667C15.92 2.66667 18.9067 4.676 18.9987 5.32533C18.9067 5.99067 15.92 8 10.9987 8C6.07736 8 3.0907 5.99067 2.9987 5.34133C3.0907 4.676 6.07736 2.66667 10.9987 2.66667ZM2.9987 8.80933C4.9707 9.93867 7.84803 10.6667 10.9987 10.6667C14.1494 10.6667 17.0267 9.93867 18.9987 8.80933V11.992C18.9067 12.6573 15.92 14.6667 10.9987 14.6667C6.07736 14.6667 3.0907 12.6573 2.9987 12V8.80933ZM2.9987 18.6667V15.476C4.9707 16.6053 7.84803 17.3333 10.9987 17.3333C14.1494 17.3333 17.0267 16.6053 18.9987 15.476V18.6587C18.9067 19.324 15.92 21.3333 10.9987 21.3333C6.07736 21.3333 3.0907 19.324 2.9987 18.6667Z" fill="black"/>
</svg>
