<svg width="54" height="57" viewBox="0 0 54 57" fill="none" xmlns="http://www.w3.org/2000/svg">
    <path d="M19.437 7.60006H34.563V11.4001H19.437V7.60006ZM19.437 30.4H34.563V34.2H19.437V30.4ZM19.437 38H34.563V41.8H19.437V38ZM54 57H0L4.72689 38H11.8739V3.80007C11.8708 3.29963 11.9713 2.80401 12.1689 2.34467C12.3655 1.88867 12.634 1.48587 12.9668 1.12867C13.3069 0.768208 13.7194 0.484535 14.1769 0.296471C14.6453 0.0999266 15.1479 -0.000836086 15.6555 7.13808e-05H38.3445C38.8425 -0.00307551 39.3357 0.0978602 39.7929 0.296471C40.2466 0.494071 40.6475 0.76387 41.0029 1.09827C41.3616 1.44003 41.6439 1.85453 41.8311 2.31427C42.0277 2.78927 42.126 3.28707 42.126 3.80007V38H49.2731L54 57ZM15.6555 45.6H38.3445V3.80007H15.6555V45.6ZM49.1597 53.2L46.3235 41.8H42.126V49.4H11.8739V41.8H7.67647L4.84034 53.2H49.1597Z" fill="black" />
</svg>
