<svg width="191" height="191" viewBox="0 0 191 191" fill="none" xmlns="http://www.w3.org/2000/svg">
    <circle cx="95.5" cy="95.5" r="95" fill="white" stroke="black" />
    <path fill-rule="evenodd" clip-rule="evenodd" d="M96 41L159 103.534L120.601 142L120.079 141.413L118.539 139.617L116.588 137.243L114.755 134.87L113.033 132.514L111.42 130.149L109.908 127.812L108.507 125.503L107.187 123.202L105.969 120.929L104.842 118.684L103.797 116.475L102.844 114.294L101.965 112.158L101.168 110.05L100.453 107.997L99.7932 105.99L99.1976 104.038L98.6754 102.132L98.2081 100.289L97.7958 98.5022L97.4385 96.7791L97.127 95.1202L96.8704 93.5347L96.6505 92.0224L96.4673 90.5835L96.3207 89.227L96.2107 87.9623L96.1283 86.7708L96.055 85.671L96.0183 84.6628L96.0092 83.7554L96 83.1505V82.9397V41Z" fill="#FF9900" />
    <path fill-rule="evenodd" clip-rule="evenodd" d="M94 41L31 103.534L69.4115 142L69.9333 141.413L71.4712 139.617L73.4211 137.243L75.2611 134.87L76.9821 132.514L78.5841 130.149L80.1037 127.812L81.5044 125.503L82.8226 123.202L84.0401 120.929L85.1569 118.684L86.2005 116.475L87.1526 114.294L88.0314 112.158L88.8278 110.05L89.551 107.997L90.2101 105.99L90.796 104.038L91.3178 102.132L91.7847 100.289L92.1966 98.5022L92.5536 96.7791L92.8649 95.1202L93.1212 93.5347L93.35 92.0224L93.524 90.5835L93.6704 89.227L93.7803 87.9623L93.8718 86.7708L93.9359 85.671L93.9725 84.6628L93.9908 83.7554L94 83.1505V41Z" fill="#FF3300" />
</svg>
