<svg xmlns="http://www.w3.org/2000/svg" viewBox="0 0 100 100" width="100" height="100"
    preserveAspectRatio="xMidYMid meet"
    style="width: 100%; height: 100%; transform: translate3d(0px, 0px, 0px);">
    <defs>
        <clipPath id="__lottie_element_2">
            <rect width="100" height="100" x="0" y="0"></rect>
        </clipPath>
    </defs>
    <g clip-path="url(#__lottie_element_2)">
        <g transform="matrix(1,0,0,1,50.42900085449219,50.428001403808594)" opacity="1"
            style="display: block;">
            <g opacity="1" transform="matrix(1,0,0,1,1.3569999933242798,-6.64300012588501)">
                <path fill="#fff" fill-opacity="1"
                    d=" M30.785499572753906,-2.7855000495910645 C30.785499572753906,-2.7855000495910645 30.785499572753906,2.7855000495910645 30.785499572753906,2.7855000495910645 C30.785499572753906,2.7855000495910645 -30.785499572753906,2.7855000495910645 -30.785499572753906,2.7855000495910645 C-30.785499572753906,2.7855000495910645 -30.785499572753906,-2.7855000495910645 -30.785499572753906,-2.7855000495910645 C-30.785499572753906,-2.7855000495910645 30.785499572753906,-2.7855000495910645 30.785499572753906,-2.7855000495910645z"></path>
            </g>
        </g>
        <g transform="matrix(1,0,0,1,50.71500015258789,67)" opacity="1" style="display: block;">
            <g opacity="1" transform="matrix(1,0,0,1,1.3569999933242798,-6.64300012588501)">
                <path fill="#fff" fill-opacity="1"
                    d=" M30.785499572753906,-2.7855000495910645 C30.785499572753906,-2.7855000495910645 30.785499572753906,2.7855000495910645 30.785499572753906,2.7855000495910645 C30.785499572753906,2.7855000495910645 -30.785499572753906,2.7855000495910645 -30.785499572753906,2.7855000495910645 C-30.785499572753906,2.7855000495910645 -30.785499572753906,-2.7855000495910645 -30.785499572753906,-2.7855000495910645 C-30.785499572753906,-2.7855000495910645 30.785499572753906,-2.7855000495910645 30.785499572753906,-2.7855000495910645z"></path>
            </g>
        </g>
    </g>
</svg> 