<svg width="1920" height="950" viewBox="0 0 1920 950" fill="none" xmlns="http://www.w3.org/2000/svg">
    <g clip-path="url(#clip0_1218_15)">
    <rect width="1923" height="950" fill="#35BA6E"/>
    <path d="M1125.71 479.423L1461.32 -16.5443L1466.15 -24H1921V922H1170.19L1101.62 772.916C1057.78 677.603 1066.91 566.312 1125.71 479.423Z" fill="#381A46"/>
    <path d="M1696.89 373.136L1690.29 384.549C1688.8 387.12 1685.83 388.44 1682.93 387.819L1670.03 385.063C1663.54 383.674 1659.06 391.408 1663.5 396.346L1672.31 406.154C1674.3 408.362 1674.64 411.597 1673.15 414.168L1666.54 425.581C1663.21 431.329 1669.19 437.973 1675.25 435.281L1687.31 429.93C1690.02 428.724 1693.2 429.403 1695.18 431.615L1704 441.422C1708.44 446.36 1716.6 442.737 1715.91 436.132L1714.55 423.018C1714.24 420.064 1715.87 417.25 1718.58 416.043L1730.64 410.693C1736.71 407.997 1735.78 399.113 1729.29 397.724L1716.39 394.968C1713.49 394.347 1711.31 391.929 1711.01 388.975L1709.64 375.858C1708.96 369.256 1700.22 367.389 1696.89 373.136Z" fill="#FFDA00"/>
    <path d="M1709.02 447.429C1710.48 447.429 1711.96 447.122 1713.38 446.493C1717.64 444.601 1720.08 440.385 1719.59 435.751L1718.23 422.635C1718.09 421.273 1718.83 419.985 1720.08 419.429L1732.14 414.078C1736.4 412.187 1738.84 407.971 1738.36 403.337C1737.87 398.703 1734.62 395.077 1730.06 394.103L1717.16 391.347C1715.83 391.061 1714.83 389.953 1714.69 388.591L1713.32 375.477C1712.84 370.843 1709.59 367.217 1705.03 366.246C1700.48 365.27 1696.02 367.248 1693.68 371.282L1687.08 382.695C1686.39 383.88 1685.04 384.486 1683.69 384.198L1670.8 381.442C1666.24 380.473 1661.79 382.444 1659.46 386.478C1657.12 390.511 1657.63 395.357 1660.74 398.822L1669.55 408.63C1670.47 409.648 1670.62 411.129 1669.94 412.314L1663.33 423.727C1660.99 427.761 1661.5 432.606 1664.61 436.071C1667.73 439.539 1672.49 440.557 1676.75 438.666L1688.8 433.315C1690.05 432.763 1691.51 433.069 1692.43 434.088L1701.24 443.895C1703.32 446.207 1706.12 447.429 1709.02 447.429ZM1702.78 373.417C1703.08 373.417 1703.34 373.456 1703.48 373.488C1704.01 373.599 1705.74 374.131 1705.96 376.244L1707.32 389.358C1707.8 393.921 1711.13 397.632 1715.62 398.589L1728.51 401.345C1730.59 401.79 1730.93 403.567 1730.99 404.101C1731.05 404.636 1731.07 406.445 1729.13 407.307L1717.08 412.658C1712.89 414.517 1710.39 418.834 1710.86 423.399L1712.23 436.516C1712.45 438.629 1710.86 439.505 1710.37 439.722C1709.88 439.941 1708.17 440.528 1706.75 438.949L1697.93 429.142C1694.87 425.727 1689.99 424.687 1685.79 426.549L1673.74 431.9C1671.8 432.762 1670.48 431.525 1670.12 431.125C1669.76 430.726 1668.67 429.279 1669.74 427.441L1676.34 416.028C1678.64 412.057 1678.12 407.095 1675.06 403.683L1666.24 393.876C1664.82 392.294 1665.59 390.654 1665.86 390.191C1666.13 389.726 1667.17 388.242 1669.24 388.689L1682.14 391.445C1686.63 392.408 1691.19 390.379 1693.48 386.409L1700.09 374.998C1700.86 373.676 1702 373.417 1702.78 373.417Z" fill="#371A45"/>
    <path d="M1709.02 447.429C1710.48 447.429 1711.96 447.122 1713.38 446.493C1717.64 444.601 1720.08 440.385 1719.59 435.751L1718.23 422.635C1718.09 421.273 1718.83 419.985 1720.08 419.429L1732.14 414.078C1736.4 412.187 1738.84 407.971 1738.36 403.337C1737.87 398.703 1734.62 395.077 1730.06 394.103L1717.16 391.347C1715.83 391.061 1714.83 389.953 1714.69 388.591L1713.32 375.477C1712.84 370.843 1709.59 367.217 1705.03 366.246C1700.48 365.27 1696.02 367.248 1693.68 371.282L1687.08 382.695C1686.39 383.88 1685.04 384.486 1683.69 384.198L1670.8 381.442C1666.24 380.473 1661.79 382.444 1659.46 386.478C1657.12 390.511 1657.63 395.357 1660.74 398.822L1669.55 408.63C1670.47 409.648 1670.62 411.129 1669.94 412.314L1663.33 423.727C1660.99 427.761 1661.5 432.606 1664.61 436.071C1667.73 439.539 1672.49 440.557 1676.75 438.666L1688.8 433.315C1690.05 432.763 1691.51 433.069 1692.43 434.088L1701.24 443.895C1703.32 446.207 1706.12 447.429 1709.02 447.429ZM1702.78 373.417C1703.08 373.417 1703.34 373.456 1703.48 373.488C1704.01 373.599 1705.74 374.131 1705.96 376.244L1707.32 389.358C1707.8 393.921 1711.13 397.632 1715.62 398.589L1728.51 401.345C1730.59 401.79 1730.93 403.567 1730.99 404.101C1731.05 404.636 1731.07 406.445 1729.13 407.307L1717.08 412.658C1712.89 414.517 1710.39 418.834 1710.86 423.399L1712.23 436.516C1712.45 438.629 1710.86 439.505 1710.37 439.722C1709.88 439.941 1708.17 440.528 1706.75 438.949L1697.93 429.142C1694.87 425.727 1689.99 424.687 1685.79 426.549L1673.74 431.9C1671.8 432.762 1670.48 431.525 1670.12 431.125C1669.76 430.726 1668.67 429.279 1669.74 427.441L1676.34 416.028C1678.64 412.057 1678.12 407.095 1675.06 403.683L1666.24 393.876C1664.82 392.294 1665.59 390.654 1665.86 390.191C1666.13 389.726 1667.17 388.242 1669.24 388.689L1682.14 391.445C1686.63 392.408 1691.19 390.379 1693.48 386.409L1700.09 374.998C1700.86 373.676 1702 373.417 1702.78 373.417Z" fill="#371A45"/>
    <path d="M0 950C112.953 909 436.017 827 824.655 827C1310.45 827 1444.9 864.348 1689.29 895.223C1867.13 917.688 1916.48 889.4 1920.7 867.986V861.858C1921.09 863.795 1921.11 865.857 1920.7 867.986V950H0Z" fill="#E3F5EB"/>
    <path opacity="0.6" d="M1734.97 146.84C1733.91 146.591 1733.06 147.673 1733.5 148.655L1736.29 154.613C1736.62 155.338 1736.61 156.201 1736.17 156.887L1732.91 162.558C1732.35 163.514 1733.12 164.65 1734.18 164.519L1740.64 163.694C1741.42 163.587 1742.21 163.905 1742.74 164.483L1747.09 169.365C1747.82 170.176 1749.16 169.83 1749.34 168.731L1750.56 162.304C1750.68 161.508 1751.22 160.843 1751.95 160.557L1757.9 157.956C1758.88 157.511 1758.95 156.156 1758 155.592L1752.29 152.401C1751.57 152.015 1751.11 151.325 1751.04 150.53L1750.39 144.018C1750.3 142.943 1748.98 142.427 1748.19 143.207L1743.44 147.691C1742.86 148.222 1742.03 148.486 1741.27 148.302L1734.97 146.84Z" fill="#FDCC00"/>
    <path d="M1528.13 79.35L1532.17 82.4512C1532.84 82.9846 1533.76 82.4602 1533.72 81.6214L1533.52 76.4345C1533.49 75.7833 1533.77 75.1891 1534.25 74.8277L1538.17 71.8266C1538.83 71.3228 1538.64 70.2404 1537.82 69.982L1533.08 68.4326C1532.5 68.2528 1532.02 67.7645 1531.86 67.1458L1530.25 62.1826C1529.99 61.3536 1528.98 61.1934 1528.49 61.8858L1525.79 66.1295C1525.44 66.6461 1524.9 66.9741 1524.32 66.9377L1519.38 66.8546C1518.58 66.828 1518.14 67.8407 1518.62 68.5165L1521.7 72.6714C1522.05 73.192 1522.18 73.8658 1522.02 74.4276L1520.6 79.3295C1520.37 80.1447 1521.11 80.9433 1521.87 80.6497L1526.48 78.9766C1527.03 78.8804 1527.64 79.0052 1528.13 79.35Z" fill="white"/>
    <path d="M1561.35 168.868C1560.6 168.478 1559.74 169.108 1559.86 169.933L1560.68 174.858C1560.79 175.461 1560.57 176.058 1560.13 176.49L1556.43 179.977C1555.83 180.539 1556.14 181.541 1556.97 181.685L1562.04 182.393C1562.66 182.456 1563.18 182.861 1563.47 183.418L1565.7 187.884C1566.09 188.641 1567.15 188.633 1567.56 187.853L1569.88 183.371C1570.15 182.805 1570.7 182.435 1571.34 182.36L1576.4 181.626C1577.25 181.495 1577.6 180.503 1576.99 179.941L1573.34 176.474C1572.9 176.047 1572.69 175.425 1572.82 174.851L1573.73 169.927C1573.89 169.119 1573.03 168.487 1572.24 168.871L1567.68 171.187C1567.1 171.472 1566.45 171.462 1565.91 171.196L1561.35 168.868Z" fill="white"/>
    <path d="M1425.77 123.797C1425.01 123.383 1424.16 124.029 1424.29 124.889L1425.16 130.024C1425.28 130.652 1425.06 131.271 1424.62 131.716L1420.95 135.306C1420.36 135.884 1420.68 136.93 1421.51 137.09L1426.6 137.88C1427.22 137.953 1427.75 138.379 1428.05 138.962L1430.33 143.634C1430.72 144.425 1431.8 144.429 1432.19 143.62L1434.47 138.981C1434.74 138.394 1435.29 138.015 1435.92 137.944L1440.99 137.234C1441.85 137.107 1442.18 136.078 1441.56 135.487L1437.87 131.84C1437.43 131.391 1437.21 130.741 1437.33 130.145L1438.19 125.03C1438.34 124.191 1437.47 123.524 1436.69 123.916L1432.14 126.277C1431.56 126.568 1430.91 126.551 1430.37 126.268L1425.77 123.797Z" fill="#4F53AA"/>
    <path d="M1732.89 37.1084L1737.06 40.1668C1737.75 40.6932 1738.72 40.1578 1738.68 39.2746L1738.48 34.0963C1738.45 33.4449 1738.76 32.8469 1739.26 32.4797L1743.36 29.3873C1744.06 28.8755 1743.83 27.8056 1743.02 27.5449L1738.11 26.0918C1737.51 25.9184 1737.01 25.4351 1736.81 24.8289L1735.15 19.8905C1734.89 19.0636 1733.79 18.926 1733.32 19.6132L1730.46 23.8916C1730.13 24.4013 1729.53 24.747 1728.92 24.7172L1723.79 24.734C1722.96 24.7165 1722.48 25.7351 1723.02 26.3947L1726.18 30.5188C1726.59 31.0246 1726.67 31.7089 1726.5 32.273L1724.97 37.2398C1724.72 38.0584 1725.53 38.8381 1726.28 38.5468L1731.09 36.7758C1731.75 36.6508 1732.37 36.7247 1732.89 37.1084Z" fill="#594065"/>
    <path opacity="0.6" d="M1438.61 236.396C1439.61 236.72 1440.56 235.796 1440.22 234.848L1438.28 228.956C1438.05 228.25 1438.16 227.454 1438.64 226.833L1442.49 221.865C1443.1 221.03 1442.52 219.874 1441.47 219.878L1435.15 219.946C1434.37 219.968 1433.67 219.565 1433.24 218.957L1429.67 213.892C1429.09 213.053 1427.76 213.263 1427.42 214.252L1425.48 220.168C1425.26 220.901 1424.67 221.46 1423.9 221.704L1417.87 223.547C1416.89 223.847 1416.63 225.132 1417.47 225.724L1422.58 229.305C1423.19 229.73 1423.56 230.445 1423.54 231.219L1423.37 237.437C1423.36 238.475 1424.53 239.072 1425.37 238.446L1430.48 234.774C1431.1 234.341 1431.89 234.224 1432.64 234.436L1438.61 236.396Z" fill="white"/>
    <path d="M1628.17 68.628C1626.87 67.8024 1625.16 68.8068 1625.28 70.3571L1625.97 79.6704C1626.03 80.8171 1625.57 81.9156 1624.68 82.6587L1617.33 88.5295C1616.12 89.495 1616.53 91.4351 1618.03 91.7883L1627.2 93.9603C1628.31 94.2309 1629.22 95.0176 1629.63 96.0725L1632.98 104.785C1633.54 106.221 1635.52 106.404 1636.35 105.072L1641.31 97.0772C1641.9 96.0865 1642.97 95.4834 1644.12 95.4146L1653.54 94.9172C1655.11 94.8324 1655.9 92.9977 1654.89 91.8189L1648.81 84.7025C1648.06 83.8264 1647.8 82.6385 1648.08 81.5422L1650.57 72.518C1650.97 71.0158 1649.47 69.7338 1648.01 70.298L1639.27 73.88C1638.2 74.2973 1637 74.1918 1636.04 73.6024L1628.17 68.628Z" fill="#FDCC00"/>
    <g opacity="0.7">
    <g opacity="0.7">
    <g opacity="0.7">
    <g opacity="0.7">
    <path opacity="0.7" d="M1779.45 242.935C1770.62 242.67 1763.67 235.295 1763.94 226.463C1764.2 217.63 1771.58 210.685 1780.41 210.95C1789.24 211.215 1796.19 218.59 1795.92 227.422C1795.66 236.255 1788.28 243.2 1779.45 242.935Z" fill="white"/>
    </g>
    </g>
    </g>
    </g>
    <g opacity="0.7">
    <g opacity="0.7">
    <g opacity="0.7">
    <g opacity="0.7">
    <path opacity="0.7" d="M1779.96 276.859C1775.57 276.354 1772.42 272.386 1772.93 267.997C1773.43 263.607 1777.4 260.459 1781.79 260.964C1786.18 261.469 1789.33 265.436 1788.82 269.825C1788.32 274.215 1784.35 277.364 1779.96 276.859Z" fill="white"/>
    </g>
    </g>
    </g>
    </g>
    <circle cx="1492" cy="290" r="10" fill="#1A2040"/>
    <path d="M1493.89 287.894C1493.57 287.802 1493.25 287.683 1492.95 287.538C1492.65 287.399 1492.36 287.237 1492.08 287.052L1492 287L1491.92 287.053C1491.65 287.238 1491.36 287.401 1491.05 287.539C1490.75 287.684 1490.43 287.803 1490.11 287.894L1490 287.923V289.186C1490 291.215 1491.93 291.974 1491.95 291.982L1492 292L1492.05 291.982C1492.07 291.982 1494 291.217 1494 289.186V287.923L1493.89 287.894Z" fill="#161C39"/>
    </g>
    <defs>
    <clipPath id="clip0_1218_15">
    <rect width="1920" height="950" fill="white"/>
    </clipPath>
    </defs>
    </svg>
    