<svg width="1920" height="1035" viewBox="0 0 1920 1035" fill="none"
    xmlns="http://www.w3.org/2000/svg">
    <rect y="-1" width="1923" height="1037" fill="#35BA6E" />
    <path
        d="M-146.463 531.004L-152.388 1144.32C-152.406 1146.2 -151.716 1148.02 -150.455 1149.42C-148.117 1152.01 -144.304 1152.64 -141.254 1150.95L765.118 648.351C962.593 538.847 972.869 258.664 783.947 134.988L400.264 -116.184C322.318 -167.21 225.09 -179.129 137.127 -148.44L54.7144 -119.688C-65.7572 -77.6577 -146.463 35.9753 -146.463 163.568L-146.463 531.004Z"
        fill="#3BC476" />
    <path
        d="M1256.57 564.769L1632.08 4.45573L1636.9 -3H2076.5L2052.5 1007H1302.12L1233.2 857.092C1189.59 762.224 1198.44 651.505 1256.57 564.769Z"
        fill="#381A46" />
    <path
        d="M-2 1036C111.012 995 434.244 913 823.084 913C1309.13 913 1443.65 950.348 1688.17 981.223C1865.73 1003.64 1915.94 974.81 1920.45 953.282C1920.47 951.239 1920.48 949.147 1920.5 947C1920.9 948.977 1920.91 951.092 1920.45 953.282C1920.25 983.992 1920.37 1003.73 1920.5 1036H-2Z"
        fill="white" />
    <path
        d="M1716.1 225.826C1715.37 225.653 1714.78 226.404 1715.08 227.085L1717.02 231.219C1717.25 231.722 1717.24 232.321 1716.93 232.797L1714.67 236.732C1714.29 237.396 1714.82 238.184 1715.55 238.092L1720.04 237.52C1720.58 237.446 1721.13 237.667 1721.5 238.068L1724.51 241.455C1725.02 242.018 1725.95 241.778 1726.08 241.015L1726.92 236.556C1727 236.003 1727.38 235.542 1727.88 235.344L1732.02 233.539C1732.69 233.23 1732.74 232.289 1732.08 231.898L1728.12 229.685C1727.62 229.417 1727.3 228.937 1727.26 228.386L1726.8 223.867C1726.74 223.122 1725.82 222.764 1725.27 223.304L1721.98 226.416C1721.58 226.784 1721 226.968 1720.48 226.84L1716.1 225.826Z"
        fill="#FDCC00" />
    <path
        d="M1572.58 178.996L1575.38 181.148C1575.85 181.518 1576.49 181.154 1576.46 180.572L1576.32 176.973C1576.3 176.521 1576.5 176.109 1576.83 175.858L1579.54 173.775C1580.01 173.426 1579.87 172.675 1579.3 172.496L1576.01 171.42C1575.61 171.296 1575.28 170.957 1575.17 170.528L1574.05 167.084C1573.87 166.509 1573.17 166.397 1572.83 166.878L1570.96 169.822C1570.71 170.181 1570.34 170.408 1569.94 170.383L1566.51 170.326C1565.96 170.307 1565.65 171.01 1565.98 171.479L1568.12 174.362C1568.36 174.723 1568.46 175.19 1568.34 175.58L1567.35 178.982C1567.2 179.547 1567.71 180.101 1568.24 179.898L1571.44 178.737C1571.82 178.67 1572.24 178.757 1572.58 178.996Z"
        fill="white" />
    <path
        d="M1595.63 241.11C1595.11 240.84 1594.52 241.277 1594.6 241.849L1595.17 245.267C1595.24 245.685 1595.09 246.099 1594.78 246.399L1592.22 248.819C1591.8 249.208 1592.02 249.904 1592.59 250.004L1596.11 250.495C1596.54 250.539 1596.9 250.82 1597.1 251.206L1598.65 254.305C1598.92 254.83 1599.66 254.825 1599.94 254.283L1601.55 251.174C1601.74 250.781 1602.12 250.524 1602.56 250.472L1606.08 249.963C1606.67 249.872 1606.91 249.184 1606.48 248.794L1603.95 246.388C1603.65 246.092 1603.5 245.66 1603.59 245.262L1604.22 241.845C1604.33 241.284 1603.73 240.846 1603.19 241.113L1600.02 242.719C1599.62 242.917 1599.17 242.91 1598.8 242.726L1595.63 241.11Z"
        fill="white" />
    <path
        d="M1501.56 209.837C1501.03 209.55 1500.44 209.998 1500.53 210.594L1501.13 214.157C1501.21 214.593 1501.07 215.023 1500.76 215.331L1498.21 217.823C1497.8 218.224 1498.02 218.949 1498.6 219.06L1502.13 219.608C1502.56 219.659 1502.93 219.955 1503.13 220.359L1504.72 223.601C1504.99 224.15 1505.74 224.152 1506.01 223.591L1507.59 220.372C1507.78 219.965 1508.16 219.702 1508.6 219.653L1512.12 219.16C1512.71 219.072 1512.94 218.358 1512.51 217.948L1509.95 215.417C1509.64 215.106 1509.49 214.655 1509.58 214.241L1510.17 210.692C1510.28 210.11 1509.67 209.647 1509.13 209.919L1505.97 211.557C1505.58 211.759 1505.12 211.747 1504.75 211.551L1501.56 209.837Z"
        fill="#4F53AA" />
    <path
        d="M1714.66 149.686L1717.55 151.808C1718.03 152.173 1718.71 151.801 1718.67 151.189L1718.54 147.595C1718.52 147.144 1718.73 146.729 1719.08 146.474L1721.92 144.328C1722.41 143.973 1722.25 143.231 1721.69 143.05L1718.28 142.041C1717.86 141.921 1717.52 141.586 1717.38 141.165L1716.23 137.738C1716.05 137.165 1715.28 137.069 1714.96 137.546L1712.97 140.515C1712.75 140.868 1712.33 141.108 1711.9 141.088L1708.35 141.099C1707.77 141.087 1707.44 141.794 1707.81 142.252L1710 145.113C1710.29 145.464 1710.35 145.939 1710.22 146.33L1709.16 149.777C1708.99 150.345 1709.55 150.886 1710.07 150.684L1713.41 149.455C1713.87 149.368 1714.3 149.419 1714.66 149.686Z"
        fill="#381A46" />
    <path
        d="M1696.08 309.082L1702.51 313.798C1703.58 314.609 1705.08 313.784 1705.01 312.422L1704.71 304.438C1704.66 303.433 1705.13 302.511 1705.91 301.945L1712.23 297.177C1713.3 296.388 1712.95 294.738 1711.7 294.336L1704.13 292.096C1703.21 291.828 1702.44 291.083 1702.13 290.149L1699.57 282.534C1699.17 281.259 1697.47 281.047 1696.75 282.107L1692.34 288.703C1691.83 289.489 1690.9 290.022 1689.96 289.976L1682.06 290.002C1680.77 289.975 1680.04 291.546 1680.87 292.563L1685.74 298.922C1686.37 299.702 1686.5 300.757 1686.23 301.626L1683.87 309.284C1683.49 310.547 1684.73 311.749 1685.9 311.3L1693.31 308.569C1694.33 308.376 1695.29 308.49 1696.08 309.082Z"
        fill="#FDD244" stroke="#381A46" stroke-width="5" />
    <path
        d="M1628.35 386.716L1631.39 388.945C1631.89 389.328 1632.6 388.938 1632.56 388.295L1632.42 384.521C1632.4 384.047 1632.62 383.611 1632.99 383.343L1635.98 381.09C1636.49 380.717 1636.32 379.937 1635.73 379.747L1632.15 378.689C1631.71 378.562 1631.35 378.21 1631.2 377.768L1630 374.17C1629.81 373.567 1629 373.467 1628.66 373.968L1626.58 377.085C1626.34 377.457 1625.9 377.709 1625.45 377.687L1621.72 377.699C1621.11 377.686 1620.76 378.429 1621.16 378.909L1623.46 381.914C1623.75 382.283 1623.82 382.782 1623.69 383.193L1622.58 386.812C1622.39 387.408 1622.98 387.977 1623.53 387.764L1627.04 386.474C1627.52 386.383 1627.97 386.437 1628.35 386.716Z"
        fill="#FDD244" stroke="#381A46" stroke-width="3" />
    <path opacity="0.6"
        d="M1510.46 287.966C1511.16 288.191 1511.82 287.55 1511.59 286.892L1510.23 282.804C1510.07 282.314 1510.15 281.762 1510.49 281.331L1513.16 277.884C1513.58 277.305 1513.18 276.502 1512.45 276.505L1508.06 276.552C1507.53 276.567 1507.04 276.287 1506.74 275.866L1504.26 272.352C1503.86 271.77 1502.94 271.915 1502.7 272.601L1501.35 276.706C1501.2 277.215 1500.79 277.603 1500.26 277.772L1496.07 279.051C1495.39 279.259 1495.21 280.151 1495.8 280.561L1499.34 283.046C1499.77 283.341 1500.03 283.837 1500.01 284.374L1499.89 288.689C1499.88 289.409 1500.69 289.824 1501.28 289.389L1504.82 286.841C1505.25 286.541 1505.8 286.46 1506.32 286.607L1510.46 287.966Z"
        fill="white" />
    <path
        d="M1642 171.556C1641.1 170.984 1639.91 171.68 1639.99 172.756L1640.47 179.218C1640.51 180.014 1640.19 180.776 1639.57 181.292L1634.47 185.366C1633.64 186.035 1633.92 187.382 1634.96 187.627L1641.32 189.134C1642.09 189.322 1642.72 189.868 1643.01 190.6L1645.34 196.645C1645.73 197.641 1647.1 197.768 1647.67 196.844L1651.12 191.297C1651.52 190.609 1652.26 190.191 1653.07 190.143L1659.6 189.798C1660.69 189.739 1661.24 188.466 1660.54 187.648L1656.32 182.71C1655.8 182.102 1655.62 181.278 1655.81 180.517L1657.54 174.256C1657.82 173.213 1656.77 172.324 1655.77 172.715L1649.7 175.201C1648.96 175.49 1648.12 175.417 1647.46 175.008L1642 171.556Z"
        fill="#FDCC00" />
    <path
        d="M1746.97 292.504C1740.84 292.32 1736.02 287.203 1736.2 281.074C1736.39 274.945 1741.5 270.126 1747.63 270.31C1753.76 270.494 1758.58 275.611 1758.39 281.74C1758.21 287.869 1753.09 292.688 1746.97 292.504Z"
        fill="#685172" />
    <path
        d="M1746.62 317.396C1743.57 317.045 1741.39 314.292 1741.74 311.247C1742.09 308.201 1744.84 306.016 1747.89 306.367C1750.93 306.717 1753.12 309.47 1752.77 312.516C1752.42 315.561 1749.66 317.746 1746.62 317.396Z"
        fill="#685172" />
</svg>