<svg width="51" height="51" viewBox="0 0 51 51" fill="none" xmlns="http://www.w3.org/2000/svg">
    <g clip-path="url(#clip0_329_679)">
        <path d="M50.9092 23.9318C50.1043 10.6335 39.1043 0.100453 25.6323 0.0175781H25.3343C20.5705 0.0494531 16.1208 1.37067 12.3181 3.67683C8.80306 5.80097 5.85069 8.73967 3.71026 12.2448C1.27882 16.2389 -0.00492212 20.8257 1.41824e-05 25.5016C1.41824e-05 26.0324 0.0255142 26.5647 0.0494204 27.0874C0.315577 31.3459 1.6113 35.3128 3.71026 38.7489C5.83808 42.2488 8.77193 45.1892 12.2671 47.3249C16.204 49.6843 20.7015 50.9452 25.2912 50.9761H25.6737C39.1553 50.8853 50.1027 40.3761 50.9426 27.0954C50.9665 26.5806 51.008 26.0419 51.008 25.5351C51.008 25.0187 51.008 24.4816 50.965 23.9732L50.9155 23.9238L50.9092 23.9318ZM25.508 33.2377V41.3722C25.7072 46.3447 24.2967 47.1735 22.5946 47.2484C22.5197 47.2484 22.4528 47.2563 22.3779 47.2563C12.7006 45.8873 5.04583 38.2166 3.71026 28.5138C3.57355 27.5123 3.5038 26.5028 3.50148 25.4921C3.50148 24.4721 3.57798 23.4664 3.71026 22.4783C5.03786 12.7931 12.6751 5.12077 22.3555 3.7358L22.5962 3.7613C24.2983 3.85055 25.7088 4.67292 25.5096 9.62789V17.7624C25.4841 21.1093 27.4093 24.2968 29.4509 25.5C27.4093 26.6938 25.4841 29.4844 25.5096 33.2281L25.508 33.2377Z" fill="black" />
    </g>
    <defs>
        <clipPath id="clip0_329_679">
            <rect width="51" height="51" fill="white" />
        </clipPath>
    </defs>
</svg>
