<svg width="32" height="32" viewBox="0 0 32 32" fill="none" xmlns="http://www.w3.org/2000/svg">
    <path d="M16 3.19995C11.0464 3.19995 7.04004 7.20635 7.04004 12.16C7.04004 18.88 16 28.7999 16 28.7999C16 28.7999 24.96 18.88 24.96 12.16C24.96 7.20635 20.9536 3.19995 16 3.19995ZM9.60004 12.16C9.60004 8.62715 12.4672 5.75995 16 5.75995C19.5328 5.75995 22.4 8.62715 22.4 12.16C22.4 15.8464 18.7136 21.3631 16 24.8063C13.3376 21.3888 9.60004 15.808 9.60004 12.16Z" fill="white"/>
    <path d="M15.9998 15.36C17.7671 15.36 19.1998 13.9273 19.1998 12.16C19.1998 10.3926 17.7671 8.95996 15.9998 8.95996C14.2325 8.95996 12.7998 10.3926 12.7998 12.16C12.7998 13.9273 14.2325 15.36 15.9998 15.36Z" fill="white"/>
    </svg>
    