<svg width="32" height="32" viewBox="0 0 32 32" fill="none" xmlns="http://www.w3.org/2000/svg">
    <path fill-rule="evenodd" clip-rule="evenodd" d="M24 14C25.0609 14 26.0783 14.4214 26.8284 15.1716C27.5786 15.9217 28 16.9391 28 18V26C28 27.0609 27.5786 28.0783 26.8284 28.8284C26.0783 29.5786 25.0609 30 24 30H8C6.93913 30 5.92172 29.5786 5.17157 28.8284C4.42143 28.0783 4 27.0609 4 26V18C4 16.9391 4.42143 15.9217 5.17157 15.1716C5.92172 14.4214 6.93913 14 8 14V10C8 7.87827 8.84285 5.84344 10.3431 4.34315C11.8434 2.84285 13.8783 2 16 2C18.1217 2 20.1566 2.84285 21.6569 4.34315C23.1571 5.84344 24 7.87827 24 10V14ZM16 4.66667C17.4145 4.66667 18.771 5.22857 19.7712 6.22876C20.7714 7.22896 21.3333 8.58551 21.3333 10V14H10.6667V10C10.6667 8.58551 11.2286 7.22896 12.2288 6.22876C13.229 5.22857 14.5855 4.66667 16 4.66667ZM24 16.6667H8C7.64638 16.6667 7.30724 16.8071 7.05719 17.0572C6.80714 17.3072 6.66667 17.6464 6.66667 18V26C6.66667 26.3536 6.80714 26.6928 7.05719 26.9428C7.30724 27.1929 7.64638 27.3333 8 27.3333H24C24.3536 27.3333 24.6928 27.1929 24.9428 26.9428C25.1929 26.6928 25.3333 26.3536 25.3333 26V18C25.3333 17.6464 25.1929 17.3072 24.9428 17.0572C24.6928 16.8071 24.3536 16.6667 24 16.6667Z" fill="#35BA6E" />
</svg>
