<svg width="32" height="32" viewBox="0 0 32 32" fill="none" xmlns="http://www.w3.org/2000/svg">
    <path d="M26.2402 26.24H5.7602C5.08124 26.24 4.43009 25.9703 3.95 25.4902C3.46991 25.0101 3.2002 24.359 3.2002 23.68V8.20865C3.22891 7.54918 3.51125 6.92629 3.98826 6.47003C4.46528 6.01376 5.1001 5.75939 5.7602 5.76001H26.2402C26.9191 5.76001 27.5703 6.02972 28.0504 6.50982C28.5305 6.98991 28.8002 7.64106 28.8002 8.32001V23.68C28.8002 24.359 28.5305 25.0101 28.0504 25.4902C27.5703 25.9703 26.9191 26.24 26.2402 26.24ZM5.7602 10.7111V23.68H26.2402V10.7111L16.0002 17.536L5.7602 10.7111ZM6.7842 8.32001L16.0002 14.464L25.2162 8.32001H6.7842Z" fill="white"/>
    </svg>
    