<svg width="26" height="26" viewBox="0 0 26 26" fill="none" xmlns="http://www.w3.org/2000/svg">
    <path d="M12.9987 12.9997C16.4979 12.9997 19.332 10.1655 19.332 6.66634C19.332 3.16717 16.4979 0.333008 12.9987 0.333008C9.49953 0.333008 6.66536 3.16717 6.66536 6.66634C6.66536 10.1655 9.49953 12.9997 12.9987 12.9997ZM12.9987 3.49967C14.7404 3.49967 16.1654 4.92467 16.1654 6.66634C16.1654 8.40801 14.7404 9.83301 12.9987 9.83301C11.257 9.83301 9.83203 8.40801 9.83203 6.66634C9.83203 4.92467 11.257 3.49967 12.9987 3.49967ZM12.9987 14.583C8.7712 14.583 0.332031 16.7047 0.332031 20.9163V24.083C0.332031 24.9538 1.04453 25.6663 1.91536 25.6663H24.082C24.9529 25.6663 25.6654 24.9538 25.6654 24.083V20.9163C25.6654 16.7047 17.2262 14.583 12.9987 14.583ZM22.4987 22.4997H3.4987V20.9322C3.81536 19.7922 8.7237 17.7497 12.9987 17.7497C17.2737 17.7497 22.182 19.7922 22.4987 20.9163V22.4997Z" fill="#35BA6E" />
</svg>
