<svg width="42" height="42" viewBox="0 0 42 42" fill="none" xmlns="http://www.w3.org/2000/svg">
    <mask id="mask0_329_664" style="mask-type:alpha" maskUnits="userSpaceOnUse" x="1" y="2" width="40" height="39">
        <path d="M7.875 25.375C8.44953 25.375 9.01844 25.2618 9.54924 25.042C10.08 24.8221 10.5623 24.4998 10.9686 24.0936C11.3748 23.6873 11.6971 23.205 11.917 22.6742C12.1368 22.1434 12.25 21.5745 12.25 21C12.25 22.1603 12.7109 23.2731 13.5314 24.0936C14.3519 24.9141 15.4647 25.375 16.625 25.375C17.7853 25.375 18.8981 24.9141 19.7186 24.0936C20.5391 23.2731 21 22.1603 21 21C21 22.1603 21.4609 23.2731 22.2814 24.0936C23.1019 24.9141 24.2147 25.375 25.375 25.375C26.5353 25.375 27.6481 24.9141 28.4686 24.0936C29.2891 23.2731 29.75 22.1603 29.75 21C29.75 22.1603 30.2109 23.2731 31.0314 24.0936C31.8519 24.9141 32.9647 25.375 34.125 25.375C35.2853 25.375 36.3981 24.9141 37.2186 24.0936C38.0391 23.2731 38.5 22.1603 38.5 21C38.5 30.6652 30.6652 38.5 21 38.5C11.3348 38.5 3.5 30.6652 3.5 21C3.5 22.1603 3.96094 23.2731 4.78141 24.0936C5.60188 24.9141 6.71468 25.375 7.875 25.375Z" fill="white" stroke="white" stroke-width="4" stroke-linecap="round" stroke-linejoin="round" />
        <path d="M25.375 4.375L16.625 13.125M16.625 4.375L25.375 13.125L16.625 4.375Z" stroke="white" stroke-width="4" stroke-linecap="round" stroke-linejoin="round" />
    </mask>
    <g mask="url(#mask0_329_664)">
        <path d="M0 0H42V42H0V0Z" fill="white" />
    </g>
</svg>
