<svg width="40" height="40" viewBox="0 0 40 40" fill="none" xmlns="http://www.w3.org/2000/svg">
    <path d="M39.9983 11.25V20.6562C39.9983 24.5469 37.7305 27.9766 34.284 30V40H11.4269V30L6.67779 26.9789C4.28404 25.4531 2.85547 22.9922 2.85547 20.4062V15C2.85547 13.8609 3.44699 12.7828 4.38225 12.0719L7.14118 10.1953V13.75C7.14118 14.4375 7.78047 15 8.56975 15C9.35904 15 9.99833 14.4403 9.99833 13.75V3.75C9.99833 1.67812 11.918 0 14.284 0C16.5501 0 18.3876 1.54453 18.5403 3.49453C19.3019 2.88281 20.3108 2.5 21.4269 2.5C23.793 2.5 25.7126 4.17812 25.7126 6.25V6.68211C26.4805 5.66953 27.793 5 29.284 5C31.3796 5 33.118 6.31797 33.4903 8.05781C34.1412 7.71094 34.9001 7.5 35.7126 7.5C38.0787 7.5 39.9983 9.17969 39.9983 11.25Z" fill="white" />
</svg>
