<svg width="45" height="45" viewBox="0 0 45 45" fill="none" xmlns="http://www.w3.org/2000/svg">
    <path d="M37.2924 36.7609C35.5891 34.3962 30.8776 28.1569 27.0099 23.0224C28.5759 20.7747 29.8246 18.9387 30.3961 17.9779C33.8724 12.1414 32.3626 8.39291 30.4456 5.22041C28.5241 2.04566 28.2204 0.211914 22.5009 0.211914C16.7791 0.211914 16.4754 2.04566 14.5561 5.22266C12.6346 8.39516 11.1271 12.1437 14.6034 17.9802C15.1749 18.9387 16.4236 20.7769 17.9919 23.0247C14.1219 28.1569 9.41038 34.3984 7.70713 36.7632C7.31113 37.3122 7.34713 38.2572 7.72738 39.1977C8.01988 39.9222 9.14488 43.1622 9.41938 43.8417C9.77038 44.7169 10.9134 45.3492 11.8539 44.0487C12.3961 43.2972 17.6634 36.1174 22.5009 29.3742C27.3361 36.1152 32.6056 43.2972 33.1479 44.0487C34.0861 45.3492 35.2314 44.7169 35.5824 43.8417C35.8569 43.1599 36.9819 39.9222 37.2744 39.1977C37.6501 38.2549 37.6884 37.3099 37.2924 36.7609ZM21.6774 15.8922C19.2744 12.5532 17.5554 8.66741 17.5554 8.66741C17.5554 8.66741 18.5004 6.96191 22.5009 6.96191C26.5014 6.96191 27.4464 8.66741 27.4464 8.66741C27.4464 8.66741 25.7229 12.5532 23.3221 15.8922L22.5009 17.0104C22.2236 16.6398 21.949 16.267 21.6774 15.8922Z" fill="white" />
</svg>
