<svg width="52" height="52" viewBox="0 0 52 52" fill="none" xmlns="http://www.w3.org/2000/svg">
    <path d="M26.0013 28.5832C26.7332 28.5832 27.3472 28.3352 27.8432 27.8392C28.3375 27.3449 28.5846 26.7318 28.5846 25.9998C28.5846 25.2679 28.3375 24.6539 27.8432 24.1579C27.3472 23.6636 26.7332 23.4165 26.0013 23.4165C25.2694 23.4165 24.6562 23.6636 24.162 24.1579C23.666 24.6539 23.418 25.2679 23.418 25.9998C23.418 26.7318 23.666 27.3449 24.162 27.8392C24.6562 28.3352 25.2694 28.5832 26.0013 28.5832ZM33.7513 28.5832C34.4832 28.5832 35.0972 28.3352 35.5932 27.8392C36.0875 27.3449 36.3346 26.7318 36.3346 25.9998C36.3346 25.2679 36.0875 24.6539 35.5932 24.1579C35.0972 23.6636 34.4832 23.4165 33.7513 23.4165C33.0194 23.4165 32.4062 23.6636 31.912 24.1579C31.416 24.6539 31.168 25.2679 31.168 25.9998C31.168 26.7318 31.416 27.3449 31.912 27.8392C32.4062 28.3352 33.0194 28.5832 33.7513 28.5832ZM18.2513 28.5832C18.9832 28.5832 19.5972 28.3352 20.0932 27.8392C20.5875 27.3449 20.8346 26.7318 20.8346 25.9998C20.8346 25.2679 20.5875 24.6539 20.0932 24.1579C19.5972 23.6636 18.9832 23.4165 18.2513 23.4165C17.5194 23.4165 16.9062 23.6636 16.412 24.1579C15.916 24.6539 15.668 25.2679 15.668 25.9998C15.668 26.7318 15.916 27.3449 16.412 27.8392C16.9062 28.3352 17.5194 28.5832 18.2513 28.5832ZM26.0013 36.3332C26.7332 36.3332 27.3472 36.0852 27.8432 35.5892C28.3375 35.0949 28.5846 34.4818 28.5846 33.7498C28.5846 33.0179 28.3375 32.4039 27.8432 31.9079C27.3472 31.4136 26.7332 31.1665 26.0013 31.1665C25.2694 31.1665 24.6562 31.4136 24.162 31.9079C23.666 32.4039 23.418 33.0179 23.418 33.7498C23.418 34.4818 23.666 35.0949 24.162 35.5892C24.6562 36.0852 25.2694 36.3332 26.0013 36.3332ZM33.7513 36.3332C34.4832 36.3332 35.0972 36.0852 35.5932 35.5892C36.0875 35.0949 36.3346 34.4818 36.3346 33.7498C36.3346 33.0179 36.0875 32.4039 35.5932 31.9079C35.0972 31.4136 34.4832 31.1665 33.7513 31.1665C33.0194 31.1665 32.4062 31.4136 31.912 31.9079C31.416 32.4039 31.168 33.0179 31.168 33.7498C31.168 34.4818 31.416 35.0949 31.912 35.5892C32.4062 36.0852 33.0194 36.3332 33.7513 36.3332ZM18.2513 36.3332C18.9832 36.3332 19.5972 36.0852 20.0932 35.5892C20.5875 35.0949 20.8346 34.4818 20.8346 33.7498C20.8346 33.0179 20.5875 32.4039 20.0932 31.9079C19.5972 31.4136 18.9832 31.1665 18.2513 31.1665C17.5194 31.1665 16.9062 31.4136 16.412 31.9079C15.916 32.4039 15.668 33.0179 15.668 33.7498C15.668 34.4818 15.916 35.0949 16.412 35.5892C16.9062 36.0852 17.5194 36.3332 18.2513 36.3332ZM26.0013 20.8332C26.7332 20.8332 27.3472 20.5852 27.8432 20.0892C28.3375 19.5949 28.5846 18.9818 28.5846 18.2498C28.5846 17.5179 28.3375 16.9039 27.8432 16.4079C27.3472 15.9136 26.7332 15.6665 26.0013 15.6665C25.2694 15.6665 24.6562 15.9136 24.162 16.4079C23.666 16.9039 23.418 17.5179 23.418 18.2498C23.418 18.9818 23.666 19.5949 24.162 20.0892C24.6562 20.5852 25.2694 20.8332 26.0013 20.8332ZM33.7513 20.8332C34.4832 20.8332 35.0972 20.5852 35.5932 20.0892C36.0875 19.5949 36.3346 18.9818 36.3346 18.2498C36.3346 17.5179 36.0875 16.9039 35.5932 16.4079C35.0972 15.9136 34.4832 15.6665 33.7513 15.6665C33.0194 15.6665 32.4062 15.9136 31.912 16.4079C31.416 16.9039 31.168 17.5179 31.168 18.2498C31.168 18.9818 31.416 19.5949 31.912 20.0892C32.4062 20.5852 33.0194 20.8332 33.7513 20.8332ZM18.2513 20.8332C18.9832 20.8332 19.5972 20.5852 20.0932 20.0892C20.5875 19.5949 20.8346 18.9818 20.8346 18.2498C20.8346 17.5179 20.5875 16.9039 20.0932 16.4079C19.5972 15.9136 18.9832 15.6665 18.2513 15.6665C17.5194 15.6665 16.9062 15.9136 16.412 16.4079C15.916 16.9039 15.668 17.5179 15.668 18.2498C15.668 18.9818 15.916 19.5949 16.412 20.0892C16.9062 20.5852 17.5194 20.8332 18.2513 20.8332ZM26.0013 51.8332C22.4277 51.8332 19.0694 51.1546 15.9263 49.7975C12.7832 48.4421 10.0492 46.6019 7.72422 44.2769C5.39922 41.9519 3.55902 39.2179 2.20364 36.0748C0.846525 32.9318 0.167969 29.5734 0.167969 25.9998C0.167969 22.4262 0.846525 19.0679 2.20364 15.9248C3.55902 12.7818 5.39922 10.0478 7.72422 7.72275C10.0492 5.39775 12.7832 3.5567 15.9263 2.19959C19.0694 0.844198 22.4277 0.166504 26.0013 0.166504C29.5749 0.166504 32.9332 0.844198 36.0763 2.19959C39.2194 3.5567 41.9534 5.39775 44.2784 7.72275C46.6034 10.0478 48.4436 12.7818 49.799 15.9248C51.1561 19.0679 51.8346 22.4262 51.8346 25.9998C51.8346 29.5734 51.1561 32.9318 49.799 36.0748C48.4436 39.2179 46.6034 41.9519 44.2784 44.2769C41.9534 46.6019 39.2194 48.4421 36.0763 49.7975C32.9332 51.1546 29.5749 51.8332 26.0013 51.8332Z" fill="white" />
</svg>
