<svg width="160" height="48" viewBox="0 0 160 48" fill="none" xmlns="http://www.w3.org/2000/svg">
    <path fill-rule="evenodd" clip-rule="evenodd" d="M40.017 13.7602C43.3598 18.7521 44.2038 25.3699 41.6513 30.8241C39.2953 35.8584 33.424 37.4018 28.1395 39.14C22.9337 40.8524 17.3348 43.0719 12.5711 40.3895C7.56485 37.5705 5.0984 31.7264 4.78556 25.9897C4.48956 20.5619 7.06294 15.5255 11.0103 11.7686C14.8901 8.07615 19.9862 6.07585 25.3244 6.44236C31.0747 6.83717 36.8172 8.98165 40.017 13.7602Z" stroke="white" stroke-width="2"/>
    <path d="M19.5041 32.2345H16.0896V20.9094H19.5041V32.2345ZM17.7758 19.5192C16.6973 19.5192 16 18.7317 16 17.7578C16 16.7639 16.7184 16 17.8197 16C18.9209 16 19.5954 16.7639 19.6165 17.7578C19.6165 18.7317 18.9209 19.5192 17.7758 19.5192ZM31.9747 32.2345H28.5602V25.9583C28.5602 24.4974 28.0649 23.5054 26.8301 23.5054C25.8869 23.5054 25.3266 24.177 25.079 24.8232C24.9877 25.0531 24.9648 25.379 24.9648 25.703V32.2326H21.5486V24.5209C21.5486 23.1071 21.5047 21.925 21.459 20.9076H24.4256L24.5819 22.4807H24.6504C25.1001 21.7422 26.2013 20.6524 28.0438 20.6524C30.2903 20.6524 31.9747 22.2038 31.9747 25.5383V32.2345Z" fill="white"/>
    <path fill-rule="evenodd" clip-rule="evenodd" d="M80.9885 5.01796C86.3885 5.33258 89.864 10.3972 92.9455 14.9119C95.6887 18.9308 97.529 23.4329 96.8634 28.276C96.1121 33.7422 94.1107 39.5499 89.2266 41.9697C84.3232 44.399 78.7539 42.0789 73.8333 39.6859C68.8938 37.2838 63.7388 34.2976 62.3744 28.911C60.9764 23.3919 63.696 17.8797 67.1777 13.4106C70.6799 8.91521 75.3535 4.68965 80.9885 5.01796Z" stroke="white" stroke-width="2"/>
    <path d="M84.9978 17.477H81.8565C81.4843 17.477 81.0707 17.9718 81.0707 18.6294V20.921H85L84.4057 24.1891H81.0707V34H77.3633V24.1891H74V20.921H77.3633V18.9989C77.3633 16.241 79.2573 14 81.8565 14H84.9978V17.477Z" fill="white"/>
    <path fill-rule="evenodd" clip-rule="evenodd" d="M121.592 15.2135C124.626 10.7637 128.027 5.86011 133.397 5.38906C138.859 4.90997 143.239 9.05939 147.079 12.978C151.169 17.151 156.049 21.7997 155.126 27.5609C154.204 33.3162 148.136 36.2193 142.934 38.8505C138.139 41.2762 132.883 43.1792 127.813 41.3777C122.505 39.4919 118.197 35.0741 116.895 29.5982C115.666 24.4308 118.604 19.5979 121.592 15.2135Z" stroke="white" stroke-width="2"/>
    <path d="M143.947 20.9589C143.937 20.233 143.795 19.5144 143.528 18.8352C143.296 18.2623 142.943 17.7419 142.489 17.3074C142.036 16.873 141.493 16.5339 140.895 16.3119C140.195 16.0602 139.456 15.9241 138.709 15.9094C137.747 15.8682 137.442 15.8567 135 15.8567C132.558 15.8567 132.245 15.8567 131.29 15.9094C130.543 15.9242 129.804 16.0603 129.105 16.3119C128.507 16.5337 127.964 16.8728 127.511 17.3073C127.057 17.7418 126.704 18.2622 126.472 18.8352C126.209 19.5052 126.067 20.2134 126.053 20.9291C126.01 21.852 125.997 22.1443 125.997 24.4846C125.997 26.8248 125.997 27.1238 126.053 28.04C126.068 28.7568 126.209 29.4641 126.472 30.1359C126.704 30.7087 127.058 31.2289 127.512 31.6632C127.965 32.0975 128.508 32.4364 129.106 32.6582C129.804 32.92 130.542 33.0658 131.291 33.0894C132.254 33.1306 132.559 33.1431 135.001 33.1431C137.443 33.1431 137.756 33.1431 138.711 33.0894C139.458 33.0753 140.197 32.9396 140.897 32.6879C141.495 32.4656 142.038 32.1265 142.491 31.692C142.944 31.2576 143.298 30.7374 143.53 30.1646C143.793 29.4938 143.934 28.7865 143.949 28.0687C143.992 27.1468 144.005 26.8545 144.005 24.5133C144.003 22.1731 144.003 21.876 143.947 20.9589ZM134.994 28.9101C132.44 28.9101 130.371 26.9274 130.371 24.4798C130.371 22.0322 132.44 20.0494 134.994 20.0494C136.22 20.0494 137.396 20.5162 138.263 21.347C139.13 22.1779 139.617 23.3048 139.617 24.4798C139.617 25.6548 139.13 26.7817 138.263 27.6125C137.396 28.4434 136.22 28.9101 134.994 28.9101ZM139.801 20.9186C139.659 20.9187 139.519 20.8921 139.388 20.8402C139.258 20.7884 139.139 20.7123 139.039 20.6163C138.938 20.5203 138.859 20.4064 138.805 20.281C138.751 20.1556 138.723 20.0212 138.723 19.8855C138.723 19.7499 138.751 19.6156 138.805 19.4904C138.859 19.3651 138.939 19.2512 139.039 19.1554C139.139 19.0595 139.258 18.9834 139.388 18.9315C139.519 18.8796 139.659 18.8529 139.801 18.8529C139.942 18.8529 140.082 18.8796 140.213 18.9315C140.344 18.9834 140.462 19.0595 140.562 19.1554C140.663 19.2512 140.742 19.3651 140.796 19.4904C140.85 19.6156 140.878 19.7499 140.878 19.8855C140.878 20.4567 140.396 20.9186 139.801 20.9186Z" fill="white"/>
    </svg>
    